<svg width="698" height="523" xmlns="http://www.w3.org/2000/svg" xmlns:xlink="http://www.w3.org/1999/xlink" overflow="hidden"><defs><clipPath id="clip0"><rect x="0" y="0" width="698" height="523"/></clipPath></defs><g clip-path="url(#clip0)"><path d="M0 0 697.333 0 697.333 523 0 523Z" fill="#F8F9FA" transform="scale(1.00096 1)"/><text font-family="Arial,Arial_MSFontService,sans-serif" font-weight="700" font-size="20" transform="matrix(0.8725 0 0 0.871667 164.03 26)">RecomMind AI <tspan font-size="20" x="140" y="0">- </tspan>Hackathon MVP Architecture</text><path d="M601.416 45.8779C606.23 45.8779 610.132 49.78 610.132 54.5934L610.132 112.517C610.132 117.33 606.23 121.232 601.416 121.232L95.9162 121.232C91.1027 121.232 87.2007 117.33 87.2007 112.517L87.2007 54.5934C87.2007 49.78 91.1027 45.8779 95.9162 45.8779Z" stroke="#2196F3" stroke-width="1.81212" fill="#E3F2FD" transform="scale(1.00096 1)"/><text font-family="Arial,Arial_MSFontService,sans-serif" font-weight="700" font-size="16" transform="matrix(0.8725 0 0 0.871667 229.4 65)">Frontend <tspan font-size="16" x="74" y="0">(</tspan><tspan font-size="16" x="79" y="0">React </tspan><tspan font-size="16" x="127" y="0">+ </tspan>Bootstrap <tspan font-size="16" x="220" y="0">+ </tspan>Chart.js)</text><path d="M230.992 78.45C233.399 78.45 235.35 80.4013 235.35 82.8083L235.35 108.958C235.35 111.365 233.399 113.317 230.992 113.317L135.108 113.317C132.701 113.317 130.75 111.365 130.75 108.958L130.75 82.8083C130.75 80.4013 132.701 78.45 135.108 78.45Z" stroke="#2196F3" stroke-width="0.871667" fill="#BBDEFB" transform="scale(1.00096 1)"/><text font-family="Arial,Arial_MSFontService,sans-serif" font-weight="400" font-size="12" transform="matrix(0.8725 0 0 0.871667 130.875 100)">Customer Dashboard</text><path d="M396.608 78.45C399.015 78.45 400.967 80.4013 400.967 82.8083L400.967 108.958C400.967 111.365 399.015 113.317 396.608 113.317L300.725 113.317C298.318 113.317 296.367 111.365 296.367 108.958L296.367 82.8083C296.367 80.4013 298.318 78.45 300.725 78.45Z" stroke="#2196F3" stroke-width="0.871667" fill="#BBDEFB" transform="scale(1.00096 1)"/><text font-family="Arial,Arial_MSFontService,sans-serif" font-weight="400" font-size="12" transform="matrix(0.8725 0 0 0.871667 297.522 100)">Financial Health View</text><path d="M562.225 78.45C564.632 78.45 566.583 80.4013 566.583 82.8083L566.583 108.958C566.583 111.365 564.632 113.317 562.225 113.317L466.342 113.317C463.935 113.317 461.983 111.365 461.983 108.958L461.983 82.8083C461.983 80.4013 463.935 78.45 466.342 78.45Z" stroke="#2196F3" stroke-width="0.871667" fill="#BBDEFB" transform="scale(1.00096 1)"/><text font-family="Arial,Arial_MSFontService,sans-serif" font-weight="400" font-size="12" transform="matrix(0.8725 0 0 0.871667 478.566 100)">RM Dashboard</text><path d="M601.805 143.272C606.617 143.272 610.518 147.173 610.518 151.985L610.518 225.385C610.518 230.197 606.617 234.097 601.805 234.097L96.4763 234.097C91.6645 234.097 87.7638 230.197 87.7638 225.385L87.7638 151.985C87.7638 147.173 91.6645 143.272 96.4763 143.272Z" stroke="#4CAF50" stroke-width="1.98912" fill="#E8F5E9" transform="scale(1.00096 1)"/><text font-family="Arial,Arial_MSFontService,sans-serif" font-weight="700" font-size="16" transform="matrix(0.8725 0 0 0.871667 295.533 162)">API Layer <tspan font-size="16" x="77" y="0">(</tspan><tspan font-size="16" x="82" y="0">Flask</tspan><tspan font-size="16" x="123" y="0">)</tspan></text><path d="M213.558 174.333C215.965 174.333 217.917 176.285 217.917 178.692L217.917 204.842C217.917 207.249 215.965 209.2 213.558 209.2L135.108 209.2C132.701 209.2 130.75 207.249 130.75 204.842L130.75 178.692C130.75 176.285 132.701 174.333 135.108 174.333Z" stroke="#4CAF50" stroke-width="0.871667" fill="#C8E6C9" transform="scale(1.00096 1)"/><text font-family="Arial,Arial_MSFontService,sans-serif" font-weight="400" font-size="12" transform="matrix(0.8725 0 0 0.871667 155.305 196)">Auth API</text><path d="M326.875 174.333C329.282 174.333 331.233 176.285 331.233 178.692L331.233 204.842C331.233 207.249 329.282 209.2 326.875 209.2L248.425 209.2C246.018 209.2 244.067 207.249 244.067 204.842L244.067 178.692C244.067 176.285 246.018 174.333 248.425 174.333Z" stroke="#4CAF50" stroke-width="0.871667" fill="#C8E6C9" transform="scale(1.00096 1)"/><text font-family="Arial,Arial_MSFontService,sans-serif" font-weight="400" font-size="12" transform="matrix(0.8725 0 0 0.871667 255.206 196)">Customer API</text><path d="M440.192 174.333C442.599 174.333 444.55 176.285 444.55 178.692L444.55 204.842C444.55 207.249 442.599 209.2 440.192 209.2L361.742 209.2C359.335 209.2 357.383 207.249 357.383 204.842L357.383 178.692C357.383 176.285 359.335 174.333 361.742 174.333Z" stroke="#4CAF50" stroke-width="0.871667" fill="#C8E6C9" transform="scale(1.00096 1)"/><text font-family="Arial,Arial_MSFontService,sans-serif" font-weight="400" font-size="12" transform="matrix(0.8725 0 0 0.871667 371.249 196)">Products API</text><path d="M553.508 174.333C555.915 174.333 557.867 176.285 557.867 178.692L557.867 204.842C557.867 207.249 555.915 209.2 553.508 209.2L475.058 209.2C472.651 209.2 470.7 207.249 470.7 204.842L470.7 178.692C470.7 176.285 472.651 174.333 475.058 174.333Z" stroke="#4CAF50" stroke-width="0.871667" fill="#C8E6C9" transform="scale(1.00096 1)"/><text font-family="Arial,Arial_MSFontService,sans-serif" font-weight="400" font-size="12" transform="matrix(0.8725 0 0 0.871667 485.11 196)">Analytics API</text><path d="M605.718 252.783C610.532 252.783 614.434 256.686 614.434 261.5L614.434 348.667C614.434 353.481 610.532 357.383 605.718 357.383L100.151 357.383C95.3369 357.383 91.4343 353.481 91.4343 348.667L91.4343 261.5C91.4343 256.686 95.3369 252.783 100.151 252.783Z" stroke="#FF9800" stroke-width="1.74333" fill="#FFF3E0" transform="scale(1.00096 1)"/><text font-family="Arial,Arial_MSFontService,sans-serif" font-weight="700" font-size="16" transform="matrix(0.8725 0 0 0.871667 275.159 272)">Business Logic Layer</text><path d="M248.425 287.65C250.832 287.65 252.783 289.601 252.783 292.008L252.783 335.592C252.783 337.999 250.832 339.95 248.425 339.95L117.675 339.95C115.268 339.95 113.317 337.999 113.317 335.592L113.317 292.008C113.317 289.601 115.268 287.65 117.675 287.65Z" stroke="#FF9800" stroke-width="0.871667" fill="#FFE0B2" transform="scale(1.00096 1)"/><text font-family="Arial,Arial_MSFontService,sans-serif" font-weight="700" font-size="12" transform="matrix(0.8725 0 0 0.871667 117.787 309)">Financial Health Calculator<tspan font-weight="400" font-size="10" x="13.5" y="20.6501">Rule</tspan><tspan font-weight="400" font-size="10" x="35.5" y="20.6501">-</tspan><tspan font-weight="400" font-size="10" x="38.5" y="20.6501">based scoring system</tspan></text><path d="M414.042 287.65C416.449 287.65 418.4 289.601 418.4 292.008L418.4 335.592C418.4 337.999 416.449 339.95 414.042 339.95L283.292 339.95C280.885 339.95 278.933 337.999 278.933 335.592L278.933 292.008C278.933 289.601 280.885 287.65 283.292 287.65Z" stroke="#FF9800" stroke-width="0.871667" fill="#FFE0B2" transform="scale(1.00096 1)"/><text font-family="Arial,Arial_MSFontService,sans-serif" font-weight="700" font-size="12" transform="matrix(0.8725 0 0 0.871667 284.435 309)">Product Recommendation<tspan font-weight="400" font-size="10" x="28" y="20.6501">scikit</tspan><tspan font-weight="400" font-size="10" x="50" y="20.6501">-</tspan><tspan font-weight="400" font-size="10" x="53" y="20.6501">learn classifier</tspan></text><path d="M579.658 287.65C582.065 287.65 584.017 289.601 584.017 292.008L584.017 335.592C584.017 337.999 582.065 339.95 579.658 339.95L448.908 339.95C446.501 339.95 444.55 337.999 444.55 335.592L444.55 292.008C444.55 289.601 446.501 287.65 448.908 287.65Z" stroke="#FF9800" stroke-width="0.871667" fill="#FFE0B2" transform="scale(1.00096 1)"/><text font-family="Arial,Arial_MSFontService,sans-serif" font-weight="700" font-size="12" transform="matrix(0.8725 0 0 0.871667 468.096 309)">Life Event Detector<tspan font-weight="400" font-size="10" x="3.99999" y="20.6501">Rule</tspan><tspan font-weight="400" font-size="10" x="26" y="20.6501">-</tspan><tspan font-weight="400" font-size="10" x="29" y="20.6501">based heuristics</tspan></text><path d="M601.45 383.533C606.264 383.533 610.167 387.436 610.167 392.25L610.167 461.983C610.167 466.797 606.264 470.7 601.45 470.7L95.8833 470.7C91.0693 470.7 87.1667 466.797 87.1667 461.983L87.1667 392.25C87.1667 387.436 91.0693 383.533 95.8833 383.533Z" stroke="#03A9F4" stroke-width="1.74333" fill="#E1F5FE" transform="scale(1.00096 1)"/><text font-family="Arial,Arial_MSFontService,sans-serif" font-weight="700" font-size="16" transform="matrix(0.8725 0 0 0.871667 313.228 405)">Data Layer</text><path d="M230.992 418.4C233.399 418.4 235.35 420.351 235.35 422.758L235.35 448.908C235.35 451.315 233.399 453.267 230.992 453.267L135.108 453.267C132.701 453.267 130.75 451.315 130.75 448.908L130.75 422.758C130.75 420.351 132.701 418.4 135.108 418.4Z" stroke="#03A9F4" stroke-width="0.871667" fill="#B3E5FC" transform="scale(1.00096 1)"/><text font-family="Arial,Arial_MSFontService,sans-serif" font-weight="400" font-size="12" transform="matrix(0.8725 0 0 0.871667 139.6 440)">Customer Profiles</text><path d="M396.608 418.4C399.015 418.4 400.967 420.351 400.967 422.758L400.967 448.908C400.967 451.315 399.015 453.267 396.608 453.267L300.725 453.267C298.318 453.267 296.367 451.315 296.367 448.908L296.367 422.758C296.367 420.351 298.318 418.4 300.725 418.4Z" stroke="#03A9F4" stroke-width="0.871667" fill="#B3E5FC" transform="scale(1.00096 1)"/><text font-family="Arial,Arial_MSFontService,sans-serif" font-weight="400" font-size="12" transform="matrix(0.8725 0 0 0.871667 307.992 440)">Transaction Data</text><path d="M562.225 418.4C564.632 418.4 566.583 420.351 566.583 422.758L566.583 448.908C566.583 451.315 564.632 453.267 562.225 453.267L466.342 453.267C463.935 453.267 461.983 451.315 461.983 448.908L461.983 422.758C461.983 420.351 463.935 418.4 466.342 418.4Z" stroke="#03A9F4" stroke-width="0.871667" fill="#B3E5FC" transform="scale(1.00096 1)"/><text font-family="Arial,Arial_MSFontService,sans-serif" font-weight="400" font-size="12" transform="matrix(0.8725 0 0 0.871667 476.385 440)">Product Catalog</text><path d="M348.192 121.741 348.192 147.891" stroke="#666666" stroke-width="1.74333" stroke-dasharray="4.35833 4.35833" fill="none" transform="scale(1.00096 1)"/><path d="M348.667 237.065 348.667 252.783" stroke="#666666" stroke-width="1.74333" stroke-dasharray="4.35833 4.35833" fill="none" transform="scale(1.00096 1)"/><path d="M348.667 359.754 348.667 383.533" stroke="#666666" stroke-width="1.74333" stroke-dasharray="4.35833 4.35833" fill="none" transform="scale(1.00096 1)"/><path d="M431.475 479.417C433.882 479.417 435.833 481.368 435.833 483.775L435.833 501.208C435.833 503.615 433.882 505.567 431.475 505.567L265.858 505.567C263.451 505.567 261.5 503.615 261.5 501.208L261.5 483.775C261.5 481.368 263.451 479.417 265.858 479.417Z" stroke="#9E9E9E" stroke-width="0.871667" fill="#E0E0E0" transform="scale(1.00096 1)"/><text font-family="Arial,Arial_MSFontService,sans-serif" font-weight="400" font-size="14" transform="matrix(0.8725 0 0 0.871667 287.489 497)">PostgreSQL Database</text><path d="M348.667 470.7 348.667 479.417" stroke="#666666" stroke-width="1.74333" stroke-dasharray="4.35833 4.35833" fill="none" transform="scale(1.00096 1)"/></g></svg>