<svg width="698" height="465" xmlns="http://www.w3.org/2000/svg" xmlns:xlink="http://www.w3.org/1999/xlink" overflow="hidden"><defs><clipPath id="clip0"><rect x="0" y="0" width="698" height="465"/></clipPath></defs><g clip-path="url(#clip0)"><path d="M0 0 697.5 0 697.5 465 0 465Z" fill="#F5F7FA" transform="scale(1.00072 1)"/><path d="M0 0 697.5 0 697.5 40.6875 0 40.6875Z" fill="#0066CC" transform="scale(1.00072 1)"/><text fill="#FFFFFF" font-family="Arial,Arial_MSFontService,sans-serif" font-weight="700" font-size="24" transform="matrix(0.581667 0 0 0.58125 17.45 26)">RecomMind AI</text><path d="M677.156 20.3438C677.156 28.3691 670.65 34.875 662.625 34.875 654.6 34.875 648.094 28.3691 648.094 20.3438 648.094 12.3184 654.6 5.8125 662.625 5.8125 670.65 5.8125 677.156 12.3184 677.156 20.3438Z" fill="#FFFFFF" transform="scale(1.00072 1)"/><text fill="#0066CC" font-family="Arial,Arial_MSFontService,sans-serif" font-weight="400" font-size="20" transform="matrix(0.581667 0 0 0.58125 656.411 24)">SJ<tspan fill="#FFFFFF" font-size="16" x="-58.4999" y="0">Sarah Johnson</tspan></text><path d="M0 40.6875 127.875 40.6875 127.875 465 0 465Z" fill="#FFFFFF" transform="scale(1.00072 1)"/><path d="M0 81.375 127.875 81.375 127.875 110.438 0 110.438Z" fill="#E6F0FF" transform="scale(1.00072 1)"/><path d="M0 81.375 2.90625 81.375 2.90625 110.438 0 110.438Z" fill="#0066CC" transform="scale(1.00072 1)"/><text fill="#666666" font-family="Arial,Arial_MSFontService,sans-serif" font-weight="400" font-size="16" transform="matrix(0.581667 0 0 0.58125 11.6333 70)">MENU<tspan fill="#0066CC" font-weight="700" font-size="16" x="10" y="53.3333">Dashboard</tspan><tspan font-size="16" x="10" y="103.226">Accounts</tspan><tspan font-size="16" x="10" y="153.118">Financial Health</tspan><tspan font-size="16" x="10" y="203.011">Products</tspan><tspan font-size="16" x="10" y="252.903">Transactions</tspan><tspan font-size="16" x="10" y="302.796">Goals</tspan><tspan font-size="16" x="10" y="352.688">Settings</tspan></text><path d="M674.25 58.125C677.46 58.125 680.062 60.7273 680.062 63.9375L680.062 110.438C680.062 113.648 677.46 116.25 674.25 116.25L151.125 116.25C147.915 116.25 145.312 113.648 145.312 110.438L145.312 63.9375C145.312 60.7273 147.915 58.125 151.125 58.125Z" stroke="#E0E0E0" stroke-width="0.58125" fill="#FFFFFF" transform="scale(1.00072 1)"/><text fill="#333333" font-family="Arial,Arial_MSFontService,sans-serif" font-weight="700" font-size="24" transform="matrix(0.581667 0 0 0.58125 162.867 81)">Welcome back<tspan font-size="24" x="166" y="0">, </tspan><tspan font-size="24" x="180" y="0">Sarah</tspan><tspan font-size="24" x="246" y="0">!</tspan><tspan fill="#666666" font-weight="400" font-size="16" x="0" y="30.9677">Your financial health score is </tspan><tspan fill="#666666" font-weight="400" font-size="16" x="199" y="30.9677">78</tspan><tspan fill="#666666" font-weight="400" font-size="16" x="217" y="30.9677">/</tspan><tspan fill="#666666" font-weight="400" font-size="16" x="221" y="30.9677">100</tspan><tspan fill="#666666" font-weight="400" font-size="16" x="248" y="30.9677">. </tspan><tspan fill="#666666" font-weight="400" font-size="16" x="256" y="30.9677">You</tspan><tspan fill="#666666" font-weight="400" font-size="16" x="281" y="30.9677">'</tspan><tspan fill="#666666" font-weight="400" font-size="16" x="284" y="30.9677">ve improved by </tspan><tspan fill="#666666" font-weight="400" font-size="16" x="393" y="30.9677">5 </tspan><tspan fill="#666666" font-weight="400" font-size="16" x="406" y="30.9677">points since last month</tspan><tspan fill="#666666" font-weight="400" font-size="16" x="563" y="30.9677">.</tspan></text><path d="M308.062 127.875C311.273 127.875 313.875 130.477 313.875 133.688L313.875 209.25C313.875 212.46 311.273 215.062 308.062 215.062L151.125 215.062C147.915 215.062 145.312 212.46 145.312 209.25L145.312 133.688C145.312 130.477 147.915 127.875 151.125 127.875Z" stroke="#E0E0E0" stroke-width="0.58125" fill="#FFFFFF" transform="scale(1.00072 1)"/><text fill="#333333" font-family="Arial,Arial_MSFontService,sans-serif" font-weight="700" font-size="18" transform="matrix(0.581667 0 0 0.58125 162.867 151)">Checking<tspan font-size="24" x="0" y="30.9677">$</tspan><tspan font-size="24" x="13" y="30.9677">1</tspan><tspan font-size="24" x="26" y="30.9677">,</tspan><tspan font-size="24" x="33" y="30.9677">942</tspan><tspan font-size="24" x="72" y="30.9677">.</tspan><tspan font-size="24" x="79" y="30.9677">04</tspan><tspan fill="#666666" font-weight="400" font-size="14" x="0" y="60.215">Last transaction</tspan><tspan fill="#666666" font-weight="400" font-size="14" x="101" y="60.215">: </tspan><tspan fill="#666666" font-weight="400" font-size="14" x="109" y="60.215">Apr </tspan><tspan fill="#666666" font-weight="400" font-size="14" x="135" y="60.215">21</tspan><tspan fill="#666666" font-weight="400" font-size="14" x="151" y="60.215">, </tspan><tspan fill="#666666" font-weight="400" font-size="14" x="159" y="60.215">2025</tspan></text><path d="M217.969 197.625C219.574 197.625 220.875 198.926 220.875 200.531L220.875 200.531C220.875 202.136 219.574 203.438 217.969 203.438L165.656 203.438C164.051 203.438 162.75 202.136 162.75 200.531L162.75 200.531C162.75 198.926 164.051 197.625 165.656 197.625Z" fill="#E0E0E0" transform="scale(1.00072 1)"/><path d="M194.719 197.625C196.324 197.625 197.625 198.926 197.625 200.531L197.625 200.531C197.625 202.136 196.324 203.438 194.719 203.438L165.656 203.438C164.051 203.438 162.75 202.136 162.75 200.531L162.75 200.531C162.75 198.926 164.051 197.625 165.656 197.625Z" fill="#4CAF50" transform="scale(1.00072 1)"/><path d="M491.156 127.875C494.366 127.875 496.969 130.477 496.969 133.688L496.969 209.25C496.969 212.46 494.366 215.062 491.156 215.062L334.219 215.062C331.009 215.062 328.406 212.46 328.406 209.25L328.406 133.688C328.406 130.477 331.009 127.875 334.219 127.875Z" stroke="#E0E0E0" stroke-width="0.58125" fill="#FFFFFF" transform="scale(1.00072 1)"/><text fill="#333333" font-family="Arial,Arial_MSFontService,sans-serif" font-weight="700" font-size="18" transform="matrix(0.581667 0 0 0.58125 346.092 151)">Savings<tspan font-size="24" x="0" y="30.9677">$</tspan><tspan font-size="24" x="13" y="30.9677">6</tspan><tspan font-size="24" x="26" y="30.9677">,</tspan><tspan font-size="24" x="33" y="30.9677">140</tspan><tspan font-size="24" x="72" y="30.9677">.</tspan><tspan font-size="24" x="79" y="30.9677">57</tspan><tspan fill="#666666" font-weight="400" font-size="14" x="0" y="60.215">Goal progress</tspan><tspan fill="#666666" font-weight="400" font-size="14" x="90" y="60.215">: </tspan><tspan fill="#666666" font-weight="400" font-size="14" x="98" y="60.215">61</tspan><tspan fill="#666666" font-weight="400" font-size="14" x="114" y="60.215">%</tspan></text><path d="M401.062 197.625C402.668 197.625 403.969 198.926 403.969 200.531L403.969 200.531C403.969 202.136 402.668 203.438 401.062 203.438L348.75 203.438C347.145 203.438 345.844 202.136 345.844 200.531L345.844 200.531C345.844 198.926 347.145 197.625 348.75 197.625Z" fill="#E0E0E0" transform="scale(1.00072 1)"/><path d="M378.394 197.625C379.999 197.625 381.3 198.926 381.3 200.531L381.3 200.531C381.3 202.136 379.999 203.438 378.394 203.438L348.75 203.438C347.145 203.438 345.844 202.136 345.844 200.531L345.844 200.531C345.844 198.926 347.145 197.625 348.75 197.625Z" fill="#2196F3" transform="scale(1.00072 1)"/><path d="M674.25 127.875C677.46 127.875 680.062 130.477 680.062 133.688L680.062 209.25C680.062 212.46 677.46 215.062 674.25 215.062L517.312 215.062C514.102 215.062 511.5 212.46 511.5 209.25L511.5 133.688C511.5 130.477 514.102 127.875 517.312 127.875Z" stroke="#E0E0E0" stroke-width="0.58125" fill="#FFFFFF" transform="scale(1.00072 1)"/><text fill="#333333" font-family="Arial,Arial_MSFontService,sans-serif" font-weight="700" font-size="18" transform="matrix(0.581667 0 0 0.58125 529.317 151)">Total Debt<tspan font-size="24" x="0" y="30.9677">$</tspan><tspan font-size="24" x="13.0001" y="30.9677">135</tspan><tspan font-size="24" x="52.0001" y="30.9677">,</tspan><tspan font-size="24" x="59" y="30.9677">351</tspan><tspan font-size="24" x="98" y="30.9677">.</tspan><tspan font-size="24" x="105" y="30.9677">80</tspan><tspan fill="#666666" font-weight="400" font-size="14" x="0" y="60.215">DTI Ratio</tspan><tspan fill="#666666" font-weight="400" font-size="14" x="59" y="60.215">: </tspan><tspan fill="#666666" font-weight="400" font-size="14" x="67" y="60.215">39</tspan><tspan fill="#666666" font-weight="400" font-size="14" x="83" y="60.215">.</tspan><tspan fill="#666666" font-weight="400" font-size="14" x="87.0001" y="60.215">1</tspan><tspan fill="#666666" font-weight="400" font-size="14" x="95.0001" y="60.215">%</tspan></text><path d="M584.156 197.625C585.761 197.625 587.062 198.926 587.062 200.531L587.062 200.531C587.062 202.136 585.761 203.438 584.156 203.438L531.844 203.438C530.239 203.438 528.938 202.136 528.938 200.531L528.938 200.531C528.938 198.926 530.239 197.625 531.844 197.625Z" fill="#E0E0E0" transform="scale(1.00072 1)"/><path d="M548.7 197.625C550.305 197.625 551.606 198.926 551.606 200.531L551.606 200.531C551.606 202.136 550.305 203.438 548.7 203.438L531.844 203.438C530.239 203.438 528.938 202.136 528.938 200.531L528.938 200.531C528.938 198.926 530.239 197.625 531.844 197.625Z" fill="#FF9800" transform="scale(1.00072 1)"/><path d="M488.25 226.688C491.46 226.688 494.062 229.29 494.062 232.5L494.062 441.75C494.062 444.96 491.46 447.562 488.25 447.562L151.125 447.562C147.915 447.562 145.312 444.96 145.312 441.75L145.312 232.5C145.312 229.29 147.915 226.688 151.125 226.688Z" stroke="#E0E0E0" stroke-width="0.58125" fill="#FFFFFF" transform="scale(1.00072 1)"/><text fill="#333333" font-family="Arial,Arial_MSFontService,sans-serif" font-weight="700" font-size="20" transform="matrix(0.581667 0 0 0.58125 162.867 250)">Financial Health Assessment</text><path d="M267.375 308.062C267.375 333.744 246.556 354.562 220.875 354.562 195.194 354.562 174.375 333.744 174.375 308.062 174.375 282.381 195.194 261.562 220.875 261.562 246.556 261.562 267.375 282.381 267.375 308.062Z" stroke="#E0E0E0" stroke-width="5.8125" fill="none" transform="scale(1.00072 1)"/><path d="M220.875 261.562C246.556 261.441 267.473 282.161 267.594 307.842 267.616 312.444 266.954 317.024 265.631 321.431" stroke="#4CAF50" stroke-width="5.8125" fill="none" transform="scale(1.00072 1)"/><text fill="#333333" font-family="Arial,Arial_MSFontService,sans-serif" font-weight="700" font-size="36" transform="matrix(0.581667 0 0 0.58125 209.4 302)">78<tspan fill="#666666" font-weight="400" font-size="16" x="-25" y="30.9677">Health Score</tspan><tspan font-size="16" x="140" y="-39.5699">Spending</tspan><tspan font-size="16" x="214" y="-39.5699">: </tspan><tspan font-size="16" x="224" y="-39.5699">82</tspan><tspan font-size="16" x="242" y="-39.5699">/</tspan><tspan font-size="16" x="246" y="-39.5699">100</tspan></text><path d="M462.094 284.812C463.699 284.812 465 286.114 465 287.719L465 287.719C465 289.324 463.699 290.625 462.094 290.625L293.531 290.625C291.926 290.625 290.625 289.324 290.625 287.719L290.625 287.719C290.625 286.114 291.926 284.812 293.531 284.812Z" fill="#E0E0E0" transform="scale(1.00072 1)"/><path d="M430.706 284.812C432.311 284.812 433.613 286.114 433.613 287.719L433.613 287.719C433.613 289.324 432.311 290.625 430.706 290.625L293.531 290.625C291.926 290.625 290.625 289.324 290.625 287.719L290.625 287.719C290.625 286.114 291.926 284.812 293.531 284.812Z" fill="#4CAF50" transform="scale(1.00072 1)"/><text fill="#333333" font-family="Arial,Arial_MSFontService,sans-serif" font-weight="700" font-size="16" transform="matrix(0.581667 0 0 0.58125 290.833 308)">Savings<tspan font-size="16" x="62" y="0">: </tspan><tspan font-size="16" x="72" y="0">75</tspan><tspan font-size="16" x="90" y="0">/</tspan><tspan font-size="16" x="94" y="0">100</tspan></text><path d="M462.094 313.875C463.699 313.875 465 315.176 465 316.781L465 316.781C465 318.386 463.699 319.688 462.094 319.688L293.531 319.688C291.926 319.688 290.625 318.386 290.625 316.781L290.625 316.781C290.625 315.176 291.926 313.875 293.531 313.875Z" fill="#E0E0E0" transform="scale(1.00072 1)"/><path d="M418.5 313.875C420.105 313.875 421.406 315.176 421.406 316.781L421.406 316.781C421.406 318.386 420.105 319.688 418.5 319.688L293.531 319.688C291.926 319.688 290.625 318.386 290.625 316.781L290.625 316.781C290.625 315.176 291.926 313.875 293.531 313.875Z" fill="#2196F3" transform="scale(1.00072 1)"/><text fill="#333333" font-family="Arial,Arial_MSFontService,sans-serif" font-weight="700" font-size="16" transform="matrix(0.581667 0 0 0.58125 290.833 337)">Debt<tspan font-size="16" x="36" y="0">: </tspan><tspan font-size="16" x="46" y="0">65</tspan><tspan font-size="16" x="64" y="0">/</tspan><tspan font-size="16" x="68" y="0">100</tspan></text><path d="M462.094 342.938C463.699 342.938 465 344.239 465 345.844L465 345.844C465 347.449 463.699 348.75 462.094 348.75L293.531 348.75C291.926 348.75 290.625 347.449 290.625 345.844L290.625 345.844C290.625 344.239 291.926 342.938 293.531 342.938Z" fill="#E0E0E0" transform="scale(1.00072 1)"/><path d="M401.062 342.938C402.668 342.938 403.969 344.239 403.969 345.844L403.969 345.844C403.969 347.449 402.668 348.75 401.062 348.75L293.531 348.75C291.926 348.75 290.625 347.449 290.625 345.844L290.625 345.844C290.625 344.239 291.926 342.938 293.531 342.938Z" fill="#FF9800" transform="scale(1.00072 1)"/><text fill="#333333" font-family="Arial,Arial_MSFontService,sans-serif" font-weight="700" font-size="16" transform="matrix(0.581667 0 0 0.58125 290.833 366)">Protection<tspan font-size="16" x="79" y="0">: </tspan><tspan font-size="16" x="89" y="0">90</tspan>/<tspan font-size="16" x="111" y="0">100</tspan></text><path d="M462.094 372C463.699 372 465 373.301 465 374.906L465 374.906C465 376.511 463.699 377.812 462.094 377.812L293.531 377.812C291.926 377.812 290.625 376.511 290.625 374.906L290.625 374.906C290.625 373.301 291.926 372 293.531 372Z" fill="#E0E0E0" transform="scale(1.00072 1)"/><path d="M444.656 372C446.261 372 447.562 373.301 447.562 374.906L447.562 374.906C447.562 376.511 446.261 377.812 444.656 377.812L293.531 377.812C291.926 377.812 290.625 376.511 290.625 374.906L290.625 374.906C290.625 373.301 291.926 372 293.531 372Z" fill="#9C27B0" transform="scale(1.00072 1)"/><text fill="#333333" font-family="Arial,Arial_MSFontService,sans-serif" font-weight="700" font-size="16" transform="matrix(0.581667 0 0 0.58125 290.833 395)">Credit<tspan font-size="16" x="46" y="0">: </tspan><tspan font-size="16" x="56" y="0">73</tspan><tspan font-size="16" x="74" y="0">/</tspan><tspan font-size="16" x="78" y="0">100</tspan></text><path d="M462.094 401.062C463.699 401.062 465 402.364 465 403.969L465 403.969C465 405.574 463.699 406.875 462.094 406.875L293.531 406.875C291.926 406.875 290.625 405.574 290.625 403.969L290.625 403.969C290.625 402.364 291.926 401.062 293.531 401.062Z" fill="#E0E0E0" transform="scale(1.00072 1)"/><path d="M415.013 401.062C416.618 401.062 417.919 402.364 417.919 403.969L417.919 403.969C417.919 405.574 416.618 406.875 415.013 406.875L293.531 406.875C291.926 406.875 290.625 405.574 290.625 403.969L290.625 403.969C290.625 402.364 291.926 401.062 293.531 401.062Z" fill="#607D8B" transform="scale(1.00072 1)"/><path d="M674.25 226.688C677.46 226.688 680.062 229.29 680.062 232.5L680.062 441.75C680.062 444.96 677.46 447.562 674.25 447.562L511.5 447.562C508.29 447.562 505.688 444.96 505.688 441.75L505.688 232.5C505.688 229.29 508.29 226.688 511.5 226.688Z" stroke="#E0E0E0" stroke-width="0.58125" fill="#FFFFFF" transform="scale(1.00072 1)"/><text fill="#333333" font-family="Arial,Arial_MSFontService,sans-serif" font-weight="700" font-size="20" transform="matrix(0.581667 0 0 0.58125 523.5 250)">Personalized For You</text><path d="M663.788 267.375C666.356 267.375 668.438 269.457 668.438 272.025L668.438 320.85C668.438 323.418 666.356 325.5 663.788 325.5L521.963 325.5C519.394 325.5 517.312 323.418 517.312 320.85L517.312 272.025C517.312 269.457 519.394 267.375 521.963 267.375Z" stroke="#81C784" stroke-width="0.58125" fill="#E8F5E9" transform="scale(1.00072 1)"/><text fill="#2E7D32" font-family="Arial,Arial_MSFontService,sans-serif" font-weight="700" font-size="16" transform="matrix(0.581667 0 0 0.58125 529.317 285)">We<tspan font-size="16" x="24" y="0">'</tspan><tspan font-size="16" x="28" y="0">ve detected</tspan><tspan font-size="16" x="116" y="0">: </tspan><tspan font-size="16" x="126" y="0">Home Purchase</tspan><tspan font-size="16" x="248" y="0">?</tspan><tspan fill="#333333" font-weight="400" font-size="14" x="0" y="29.2473">Your recent activity suggests you might be looking to buy a home</tspan><tspan fill="#333333" font-weight="400" font-size="14" x="409" y="29.2473">. </tspan><tspan fill="#333333" font-weight="400" font-size="14" x="417" y="29.2473">We can help with that</tspan><tspan fill="#333333" font-weight="400" font-size="14" x="552" y="29.2473">!</tspan></text><path d="M578.344 313.875C583.159 313.875 587.062 317.779 587.062 322.594L587.062 322.594C587.062 327.409 583.159 331.312 578.344 331.312L537.656 331.312C532.841 331.312 528.938 327.409 528.938 322.594L528.938 322.594C528.938 317.779 532.841 313.875 537.656 313.875Z" fill="#4CAF50" transform="scale(1.00072 1)"/><text fill="#FFFFFF" font-family="Arial,Arial_MSFontService,sans-serif" font-weight="400" font-size="14" transform="matrix(0.581667 0 0 0.58125 537.169 326)">Learn More</text><path d="M663.788 337.125C666.356 337.125 668.438 339.207 668.438 341.775L668.438 378.975C668.438 381.543 666.356 383.625 663.788 383.625L521.963 383.625C519.394 383.625 517.312 381.543 517.312 378.975L517.312 341.775C517.312 339.207 519.394 337.125 521.963 337.125Z" stroke="#E0E0E0" stroke-width="0.58125" fill="#FFFFFF" transform="scale(1.00072 1)"/><text fill="#333333" font-family="Arial,Arial_MSFontService,sans-serif" font-weight="700" font-size="16" transform="matrix(0.581667 0 0 0.58125 529.317 355)">Investment Account<tspan fill="#666666" font-weight="400" font-size="14" x="0" y="18.9247">Start growing your wealth with our recommended investment options</tspan><tspan fill="#666666" font-weight="400" font-size="14" x="428" y="18.9247">.</tspan></text><path d="M663.788 395.25C666.356 395.25 668.438 397.332 668.438 399.9L668.438 437.1C668.438 439.668 666.356 441.75 663.788 441.75L521.963 441.75C519.394 441.75 517.312 439.668 517.312 437.1L517.312 399.9C517.312 397.332 519.394 395.25 521.963 395.25Z" stroke="#E0E0E0" stroke-width="0.58125" fill="#FFFFFF" transform="scale(1.00072 1)"/><text fill="#333333" font-family="Arial,Arial_MSFontService,sans-serif" font-weight="700" font-size="16" transform="matrix(0.581667 0 0 0.58125 529.317 413)">Mortgage Pre<tspan font-size="16" x="102" y="0">-</tspan><tspan font-size="16" x="107" y="0">approval</tspan><tspan fill="#666666" font-weight="400" font-size="14" x="0" y="18.9247">Get ready for your home purchase with a pre</tspan><tspan fill="#666666" font-weight="400" font-size="14" x="283" y="18.9247">-</tspan><tspan fill="#666666" font-weight="400" font-size="14" x="288" y="18.9247">approved mortgage</tspan><tspan fill="#666666" font-weight="400" font-size="14" x="412" y="18.9247">.</tspan></text></g></svg>