<svg width="698" height="465" xmlns="http://www.w3.org/2000/svg" xmlns:xlink="http://www.w3.org/1999/xlink" overflow="hidden"><defs><clipPath id="clip0"><rect x="0" y="0" width="698" height="465"/></clipPath></defs><g clip-path="url(#clip0)"><path d="M0 0 697.5 0 697.5 465 0 465Z" fill="#F5F7FA" transform="scale(1.00072 1)"/><path d="M0 0 697.5 0 697.5 40.6875 0 40.6875Z" fill="#0066CC" transform="scale(1.00072 1)"/><text fill="#FFFFFF" font-family="Arial,Arial_MSFontService,sans-serif" font-weight="700" font-size="24" transform="matrix(0.581667 0 0 0.58125 17.45 26)">RecomMind AI</text><path d="M677.156 20.3438C677.156 28.3691 670.65 34.875 662.625 34.875 654.6 34.875 648.094 28.3691 648.094 20.3438 648.094 12.3184 654.6 5.8125 662.625 5.8125 670.65 5.8125 677.156 12.3184 677.156 20.3438Z" fill="#FFFFFF" transform="scale(1.00072 1)"/><text fill="#0066CC" font-family="Arial,Arial_MSFontService,sans-serif" font-weight="400" font-size="20" transform="matrix(0.581667 0 0 0.58125 656.411 24)">SJ<tspan fill="#FFFFFF" font-size="16" x="-58.4999" y="0">Sarah Johnson</tspan></text><path d="M0 40.6875 127.875 40.6875 127.875 465 0 465Z" fill="#FFFFFF" transform="scale(1.00072 1)"/><path d="M0 139.5 127.875 139.5 127.875 168.562 0 168.562Z" fill="#E6F0FF" transform="scale(1.00072 1)"/><path d="M0 139.5 2.90625 139.5 2.90625 168.562 0 168.562Z" fill="#0066CC" transform="scale(1.00072 1)"/><text fill="#666666" font-family="Arial,Arial_MSFontService,sans-serif" font-weight="400" font-size="16" transform="matrix(0.581667 0 0 0.58125 11.6333 70)">MENU<tspan font-size="16" x="10" y="53.3333">Dashboard</tspan><tspan font-size="16" x="10" y="103.226">Accounts</tspan><tspan fill="#0066CC" font-weight="700" font-size="16" x="10" y="153.118">Financial Health</tspan><tspan font-size="16" x="10" y="203.011">Products</tspan><tspan font-size="16" x="10" y="252.903">Transactions</tspan><tspan font-size="16" x="10" y="302.796">Goals</tspan><tspan font-size="16" x="10" y="352.688">Settings</tspan><tspan fill="#333333" font-weight="700" font-size="24" x="230" y="-10.3226">Financial Health Dashboard</tspan><tspan font-size="16" x="230" y="18.9247">A comprehensive view of your financial well</tspan>-being and recommendations</text><path d="M395.25 98.8125C398.46 98.8125 401.062 101.415 401.062 104.625L401.062 244.125C401.062 247.335 398.46 249.938 395.25 249.938L151.125 249.938C147.915 249.938 145.312 247.335 145.312 244.125L145.312 104.625C145.312 101.415 147.915 98.8125 151.125 98.8125Z" stroke="#E0E0E0" stroke-width="0.58125" fill="#FFFFFF" transform="scale(1.00072 1)"/><text fill="#333333" font-family="Arial,Arial_MSFontService,sans-serif" font-weight="700" font-size="20" transform="matrix(0.581667 0 0 0.58125 162.867 122)">Your Financial Health Score</text><path d="M267.375 174.375C267.375 200.056 246.556 220.875 220.875 220.875 195.194 220.875 174.375 200.056 174.375 174.375 174.375 148.694 195.194 127.875 220.875 127.875 246.556 127.875 267.375 148.694 267.375 174.375Z" stroke="#E0E0E0" stroke-width="5.8125" fill="none" transform="scale(1.00072 1)"/><path d="M220.875 127.875C246.556 127.754 267.473 148.474 267.594 174.155 267.616 178.756 266.954 183.336 265.631 187.744" stroke="#4CAF50" stroke-width="5.8125" fill="none" transform="scale(1.00072 1)"/><text fill="#333333" font-family="Arial,Arial_MSFontService,sans-serif" font-weight="700" font-size="36" transform="matrix(0.581667 0 0 0.58125 209.4 169)">78<tspan fill="#666666" font-weight="400" font-size="16" x="-25" y="29.2473">Health Score</tspan><tspan fill="#666666" font-weight="400" font-size="16" x="160" y="-41.2903">Monthly Trend</tspan></text><path d="M302.25 174.375 313.875 168.562 325.5 180.188 337.125 174.375 348.75 162.75 360.375 151.125 372 145.312" stroke="#4CAF50" stroke-width="1.1625" fill="none" transform="scale(1.00072 1)"/><path d="M302.25 186 372 186" stroke="#666666" stroke-width="0.58125" fill="none" transform="scale(1.00072 1)"/><path d="M302.25 186 302.25 145.312" stroke="#666666" stroke-width="0.58125" fill="none" transform="scale(1.00072 1)"/><text fill="#666666" font-family="Arial,Arial_MSFontService,sans-serif" font-weight="400" font-size="12" transform="matrix(0.581667 0 0 0.58125 314.973 198)">Last <tspan font-size="12" x="27" y="0">6 </tspan><tspan font-size="12" x="37" y="0">Months</tspan></text><path d="M662.625 98.8125C665.835 98.8125 668.438 101.415 668.438 104.625L668.438 244.125C668.438 247.335 665.835 249.938 662.625 249.938L418.5 249.938C415.29 249.938 412.688 247.335 412.688 244.125L412.688 104.625C412.688 101.415 415.29 98.8125 418.5 98.8125Z" stroke="#E0E0E0" stroke-width="0.58125" fill="#FFFFFF" transform="scale(1.00072 1)"/><text fill="#333333" font-family="Arial,Arial_MSFontService,sans-serif" font-weight="700" font-size="20" transform="matrix(0.581667 0 0 0.58125 430.433 122)">Credit Profile<tspan fill="#666666" font-weight="400" font-size="16" x="0" y="39.5699">Credit Score</tspan><tspan font-size="36" x="0" y="70.5376">728</tspan><tspan fill="#4CAF50" font-weight="400" font-size="16" x="110" y="70.5376">Good</tspan></text><path d="M648.094 174.375C649.699 174.375 651 175.676 651 177.281L651 177.281C651 178.886 649.699 180.188 648.094 180.188L433.031 180.188C431.426 180.188 430.125 178.886 430.125 177.281L430.125 177.281C430.125 175.676 431.426 174.375 433.031 174.375Z" fill="#E0E0E0" transform="scale(1.00072 1)"/><path d="M595.781 174.375C597.386 174.375 598.688 175.676 598.688 177.281L598.688 177.281C598.688 178.886 597.386 180.188 595.781 180.188L433.031 180.188C431.426 180.188 430.125 178.886 430.125 177.281L430.125 177.281C430.125 175.676 431.426 174.375 433.031 174.375Z" fill="#4CAF50" transform="scale(1.00072 1)"/><text fill="#666666" font-family="Arial,Arial_MSFontService,sans-serif" font-weight="400" font-size="12" transform="matrix(0.581667 0 0 0.58125 430.433 192)">300<tspan font-size="12" x="179.5" y="0">700</tspan><tspan font-size="12" x="359" y="0">850</tspan><tspan font-size="16" x="0" y="29.2473">Key Factors</tspan></text><path d="M438.844 220.875C438.844 222.48 437.543 223.781 435.938 223.781 434.332 223.781 433.031 222.48 433.031 220.875 433.031 219.27 434.332 217.969 435.938 217.969 437.543 217.969 438.844 219.27 438.844 220.875Z" fill="#4CAF50" transform="scale(1.00072 1)"/><text fill="#333333" font-family="Arial,Arial_MSFontService,sans-serif" font-weight="400" font-size="14" transform="matrix(0.581667 0 0 0.58125 444.975 224)">On-<tspan font-size="14" x="24" y="0">time payment history</tspan></text><path d="M438.844 235.406C438.844 237.011 437.543 238.312 435.938 238.312 434.332 238.312 433.031 237.011 433.031 235.406 433.031 233.801 434.332 232.5 435.938 232.5 437.543 232.5 438.844 233.801 438.844 235.406Z" fill="#FF9800" transform="scale(1.00072 1)"/><text fill="#333333" font-family="Arial,Arial_MSFontService,sans-serif" font-weight="400" font-size="14" transform="matrix(0.581667 0 0 0.58125 444.975 238)">High credit utilization (<tspan font-size="14" x="138" y="0">34</tspan><tspan font-size="14" x="154" y="0">%)</tspan></text><path d="M662.625 261.562C665.835 261.562 668.438 264.165 668.438 267.375L668.438 441.75C668.438 444.96 665.835 447.562 662.625 447.562L151.125 447.562C147.915 447.562 145.312 444.96 145.312 441.75L145.312 267.375C145.312 264.165 147.915 261.562 151.125 261.562Z" stroke="#E0E0E0" stroke-width="0.58125" fill="#FFFFFF" transform="scale(1.00072 1)"/><text fill="#333333" font-family="Arial,Arial_MSFontService,sans-serif" font-weight="700" font-size="20" transform="matrix(0.581667 0 0 0.58125 162.867 285)">Financial Health Components</text><path d="M303.413 302.25C305.981 302.25 308.062 304.332 308.062 306.9L308.062 355.725C308.062 358.293 305.981 360.375 303.413 360.375L167.4 360.375C164.832 360.375 162.75 358.293 162.75 355.725L162.75 306.9C162.75 304.332 164.832 302.25 167.4 302.25Z" stroke="#AED581" stroke-width="0.58125" fill="#F1F8E9" transform="scale(1.00072 1)"/><text fill="#558B2F" font-family="Arial,Arial_MSFontService,sans-serif" font-weight="700" font-size="18" transform="matrix(0.581667 0 0 0.58125 174.5 320)">Spending<tspan fill="#333333" font-size="28" x="0" y="29.2473">82</tspan><tspan fill="#333333" font-size="28" x="32" y="29.2473">/</tspan><tspan fill="#333333" font-size="28" x="40" y="29.2473">100</tspan><tspan font-weight="400" font-size="16" x="100" y="29.2473">Excellent</tspan><tspan fill="#666666" font-weight="400" font-size="14" x="0" y="49.8925">Monthly expenses</tspan><tspan fill="#666666" font-weight="400" font-size="14" x="113" y="49.8925">: </tspan><tspan fill="#666666" font-weight="400" font-size="14" x="121" y="49.8925">$</tspan><tspan fill="#666666" font-weight="400" font-size="14" x="129" y="49.8925">600</tspan><tspan fill="#666666" font-weight="400" font-size="14" x="153" y="49.8925">.</tspan><tspan fill="#666666" font-weight="400" font-size="14" x="157" y="49.8925">30</tspan></text><path d="M460.35 302.25C462.918 302.25 465 304.332 465 306.9L465 355.725C465 358.293 462.918 360.375 460.35 360.375L324.337 360.375C321.769 360.375 319.688 358.293 319.688 355.725L319.688 306.9C319.688 304.332 321.769 302.25 324.337 302.25Z" stroke="#90CAF9" stroke-width="0.58125" fill="#E3F2FD" transform="scale(1.00072 1)"/><text fill="#1565C0" font-family="Arial,Arial_MSFontService,sans-serif" font-weight="700" font-size="18" transform="matrix(0.581667 0 0 0.58125 331.55 320)">Savings<tspan fill="#333333" font-size="28" x="0" y="29.2473">75</tspan><tspan fill="#333333" font-size="28" x="32" y="29.2473">/</tspan><tspan fill="#333333" font-size="28" x="40" y="29.2473">100</tspan><tspan font-weight="400" font-size="16" x="100" y="29.2473">Good</tspan><tspan fill="#666666" font-weight="400" font-size="14" x="0" y="49.8925">Emergency fund</tspan><tspan fill="#666666" font-weight="400" font-size="14" x="103" y="49.8925">: </tspan><tspan fill="#666666" font-weight="400" font-size="14" x="111" y="49.8925">10</tspan><tspan fill="#666666" font-weight="400" font-size="14" x="127" y="49.8925">.</tspan><tspan fill="#666666" font-weight="400" font-size="14" x="131" y="49.8925">2 </tspan><tspan fill="#666666" font-weight="400" font-size="14" x="143" y="49.8925">months</tspan></text><path d="M617.288 302.25C619.856 302.25 621.938 304.332 621.938 306.9L621.938 355.725C621.938 358.293 619.856 360.375 617.288 360.375L481.275 360.375C478.707 360.375 476.625 358.293 476.625 355.725L476.625 306.9C476.625 304.332 478.707 302.25 481.275 302.25Z" stroke="#FFCC80" stroke-width="0.58125" fill="#FFF3E0" transform="scale(1.00072 1)"/><text fill="#E65100" font-family="Arial,Arial_MSFontService,sans-serif" font-weight="700" font-size="18" transform="matrix(0.581667 0 0 0.58125 488.6 320)">Debt<tspan fill="#333333" font-size="28" x="0" y="29.2473">65</tspan><tspan fill="#333333" font-size="28" x="32" y="29.2473">/</tspan><tspan fill="#333333" font-size="28" x="40" y="29.2473">100</tspan><tspan font-weight="400" font-size="16" x="100" y="29.2473">Fair</tspan><tspan fill="#666666" font-weight="400" font-size="14" x="0" y="49.8925">DTI Ratio</tspan><tspan fill="#666666" font-weight="400" font-size="14" x="59" y="49.8925">: </tspan><tspan fill="#666666" font-weight="400" font-size="14" x="67" y="49.8925">39</tspan><tspan fill="#666666" font-weight="400" font-size="14" x="83" y="49.8925">.</tspan><tspan fill="#666666" font-weight="400" font-size="14" x="87" y="49.8925">1</tspan><tspan fill="#666666" font-weight="400" font-size="14" x="95" y="49.8925">%</tspan></text><path d="M303.413 372C305.981 372 308.062 374.082 308.062 376.65L308.062 425.475C308.062 428.043 305.981 430.125 303.413 430.125L167.4 430.125C164.832 430.125 162.75 428.043 162.75 425.475L162.75 376.65C162.75 374.082 164.832 372 167.4 372Z" stroke="#CE93D8" stroke-width="0.58125" fill="#F3E5F5" transform="scale(1.00072 1)"/><text fill="#7B1FA2" font-family="Arial,Arial_MSFontService,sans-serif" font-weight="700" font-size="18" transform="matrix(0.581667 0 0 0.58125 174.5 389)">Protection<tspan fill="#333333" font-size="28" x="0" y="30.9677">90</tspan><tspan fill="#333333" font-size="28" x="32" y="30.9677">/</tspan><tspan fill="#333333" font-size="28" x="40" y="30.9677">100</tspan><tspan font-weight="400" font-size="16" x="100" y="30.9677">Excellent</tspan><tspan fill="#666666" font-weight="400" font-size="14" x="0" y="51.6129">Insurance coverage complete</tspan></text><path d="M460.35 372C462.918 372 465 374.082 465 376.65L465 425.475C465 428.043 462.918 430.125 460.35 430.125L324.337 430.125C321.769 430.125 319.688 428.043 319.688 425.475L319.688 376.65C319.688 374.082 321.769 372 324.337 372Z" stroke="#B0BEC5" stroke-width="0.58125" fill="#ECEFF1" transform="scale(1.00072 1)"/><text fill="#455A64" font-family="Arial,Arial_MSFontService,sans-serif" font-weight="700" font-size="18" transform="matrix(0.581667 0 0 0.58125 331.55 389)">Credit<tspan fill="#333333" font-size="28" x="0" y="30.9677">73</tspan><tspan fill="#333333" font-size="28" x="32" y="30.9677">/</tspan><tspan fill="#333333" font-size="28" x="40" y="30.9677">100</tspan><tspan font-weight="400" font-size="16" x="100" y="30.9677">Good</tspan><tspan fill="#666666" font-weight="400" font-size="14" x="0" y="51.6129">Credit card score</tspan><tspan fill="#666666" font-weight="400" font-size="14" x="109" y="51.6129">: </tspan><tspan fill="#666666" font-weight="400" font-size="14" x="117" y="51.6129">26</tspan><tspan fill="#666666" font-weight="400" font-size="14" x="133" y="51.6129">.</tspan><tspan fill="#666666" font-weight="400" font-size="14" x="137" y="51.6129">1</tspan><tspan fill="#666666" font-weight="400" font-size="14" x="145" y="51.6129">/</tspan><tspan fill="#666666" font-weight="400" font-size="14" x="149" y="51.6129">100</tspan></text><path d="M617.288 372C619.856 372 621.938 374.082 621.938 376.65L621.938 425.475C621.938 428.043 619.856 430.125 617.288 430.125L481.275 430.125C478.707 430.125 476.625 428.043 476.625 425.475L476.625 376.65C476.625 374.082 478.707 372 481.275 372Z" stroke="#9FA8DA" stroke-width="0.58125" fill="#E8EAF6" transform="scale(1.00072 1)"/><text fill="#3949AB" font-family="Arial,Arial_MSFontService,sans-serif" font-weight="700" font-size="18" transform="matrix(0.581667 0 0 0.58125 488.6 389)">Recommendations</text><path d="M496.969 401.062C496.969 402.668 495.668 403.969 494.062 403.969 492.457 403.969 491.156 402.668 491.156 401.062 491.156 399.457 492.457 398.156 494.062 398.156 495.668 398.156 496.969 399.457 496.969 401.062Z" fill="#3949AB" transform="scale(1.00072 1)"/><text fill="#333333" font-family="Arial,Arial_MSFontService,sans-serif" font-weight="400" font-size="14" transform="matrix(0.581667 0 0 0.58125 503.142 404)">Open an Investment Account</text><path d="M496.969 415.594C496.969 417.199 495.668 418.5 494.062 418.5 492.457 418.5 491.156 417.199 491.156 415.594 491.156 413.989 492.457 412.688 494.062 412.688 495.668 412.688 496.969 413.989 496.969 415.594Z" fill="#3949AB" transform="scale(1.00072 1)"/><text fill="#333333" font-family="Arial,Arial_MSFontService,sans-serif" font-weight="400" font-size="14" transform="matrix(0.581667 0 0 0.58125 503.142 419)">Reduce credit utilization to <tspan font-size="14" x="170" y="0">&lt;</tspan><tspan font-size="14" x="178" y="0">30</tspan><tspan font-size="14" x="194" y="0">%</tspan></text></g></svg>