<svg width="698" height="465" xmlns="http://www.w3.org/2000/svg" xmlns:xlink="http://www.w3.org/1999/xlink" overflow="hidden"><defs><clipPath id="clip0"><rect x="0" y="0" width="698" height="465"/></clipPath></defs><g clip-path="url(#clip0)"><path d="M0 0 697.5 0 697.5 465 0 465Z" fill="#F8F9FA" transform="scale(1.00072 1)"/><path d="M0 0 697.5 0 697.5 34.875 0 34.875Z" fill="#1976D2" transform="scale(1.00072 1)"/><text fill="#FFFFFF" font-family="Arial,Arial_MSFontService,sans-serif" font-weight="700" font-size="24" transform="matrix(0.581667 0 0 0.58125 14.5417 22)">RecomMind AI<tspan font-weight="400" font-size="18" x="175" y="0">Relationship Manager Dashboard</tspan></text><path d="M674.25 17.4375C674.25 23.8578 669.045 29.0625 662.625 29.0625 656.205 29.0625 651 23.8578 651 17.4375 651 11.0172 656.205 5.8125 662.625 5.8125 669.045 5.8125 674.25 11.0172 674.25 17.4375Z" stroke="#FFFFFF" stroke-width="1.1625" fill="#BBDEFB" transform="scale(1.00072 1)"/><text fill="#1976D2" font-family="Arial,Arial_MSFontService,sans-serif" font-weight="700" font-size="14" transform="matrix(0.581667 0 0 0.58125 657.865 20)">JD<tspan fill="#FFFFFF" font-weight="400" font-size="14" x="-101" y="3.44086">John Doe</tspan></text><path d="M0 34.875 116.25 34.875 116.25 465 0 465Z" fill="#E3F2FD" transform="scale(1.00072 1)"/><path d="M0 75.5625 116.25 75.5625 116.25 104.625 0 104.625Z" fill="#1976D2" transform="scale(1.00072 1)"/><text fill="#FFFFFF" font-family="Arial,Arial_MSFontService,sans-serif" font-weight="400" font-size="14" transform="matrix(0.581667 0 0 0.58125 11.6333 93)">Customer Overview<tspan fill="#333333" font-size="14" x="0" y="49.8925">Performance Metrics</tspan><tspan fill="#333333" font-size="14" x="0" y="99.7849">Team Management</tspan><tspan fill="#333333" font-size="14" x="0" y="149.677">Product Catalog</tspan><tspan fill="#333333" font-size="14" x="0" y="199.57">Analytics</tspan><tspan fill="#333333" font-size="14" x="0" y="249.462">Settings</tspan></text><path d="M116.25 34.875 697.5 34.875 697.5 69.75 116.25 69.75Z" fill="#F1F3F4" transform="scale(1.00072 1)"/><text fill="#333333" font-family="Arial,Arial_MSFontService,sans-serif" font-weight="700" font-size="20" transform="matrix(0.581667 0 0 0.58125 127.967 58)">Customer Overview</text><path d="M543.469 43.5938C548.284 43.5938 552.188 47.4973 552.188 52.3125L552.188 52.3125C552.188 57.1277 548.284 61.0312 543.469 61.0312L386.531 61.0312C381.716 61.0312 377.812 57.1277 377.812 52.3125L377.812 52.3125C377.812 47.4973 381.716 43.5938 386.531 43.5938Z" stroke="#CCCCCC" stroke-width="0.58125" fill="#FFFFFF" transform="scale(1.00072 1)"/><text fill="#777777" font-family="Arial,Arial_MSFontService,sans-serif" font-weight="400" font-size="14" transform="matrix(0.581667 0 0 0.58125 389.717 55)">Search customers...</text><path d="M619.031 43.5938C620.636 43.5938 621.938 44.8949 621.938 46.5L621.938 58.125C621.938 59.7301 620.636 61.0312 619.031 61.0312L566.719 61.0312C565.114 61.0312 563.812 59.7301 563.812 58.125L563.812 46.5C563.812 44.8949 565.114 43.5938 566.719 43.5938Z" stroke="#CCCCCC" stroke-width="0.58125" fill="#FFFFFF" transform="scale(1.00072 1)"/><text fill="#333333" font-family="Arial,Arial_MSFontService,sans-serif" font-weight="400" font-size="14" transform="matrix(0.581667 0 0 0.58125 583.993 55)">Filter</text><path d="M682.969 43.5938C684.574 43.5938 685.875 44.8949 685.875 46.5L685.875 58.125C685.875 59.7301 684.574 61.0312 682.969 61.0312L630.656 61.0312C629.051 61.0312 627.75 59.7301 627.75 58.125L627.75 46.5C627.75 44.8949 629.051 43.5938 630.656 43.5938Z" fill="#1976D2" transform="scale(1.00072 1)"/><text fill="#FFFFFF" font-family="Arial,Arial_MSFontService,sans-serif" font-weight="400" font-size="14" transform="matrix(0.581667 0 0 0.58125 646.232 55)">+ <tspan font-size="14" x="12" y="0">New</tspan><tspan fill="#444444" font-weight="700" font-size="16" x="-891" y="55.0538">Priority Customers</tspan></text><path d="M299.344 98.8125C300.949 98.8125 302.25 100.114 302.25 101.719L302.25 188.906C302.25 190.511 300.949 191.812 299.344 191.812L130.781 191.812C129.176 191.812 127.875 190.511 127.875 188.906L127.875 101.719C127.875 100.114 129.176 98.8125 130.781 98.8125Z" stroke="#1976D2" stroke-width="1.1625" fill="#FFFFFF" transform="scale(1.00072 1)"/><path d="M129.619 98.8125C130.261 98.8125 130.781 99.333 130.781 99.975L130.781 190.65C130.781 191.292 130.261 191.812 129.619 191.812L129.038 191.812C128.395 191.812 127.875 191.292 127.875 190.65L127.875 99.975C127.875 99.333 128.395 98.8125 129.038 98.8125Z" fill="#FF9800" transform="scale(1.00072 1)"/><text fill="#333333" font-family="Arial,Arial_MSFontService,sans-serif" font-weight="700" font-size="16" transform="matrix(0.581667 0 0 0.58125 139.6 113)">Sarah Johnson</text><path d="M293.531 110.438C293.531 115.253 289.628 119.156 284.812 119.156 279.997 119.156 276.094 115.253 276.094 110.438 276.094 105.622 279.997 101.719 284.812 101.719 289.628 101.719 293.531 105.622 293.531 110.438Z" fill="#4CAF50" transform="scale(1.00072 1)"/><text fill="#FFFFFF" font-family="Arial,Arial_MSFontService,sans-serif" font-weight="400" font-size="14" transform="matrix(0.581667 0 0 0.58125 282.981 113)">↑<tspan fill="#666666" font-size="12" x="-246.5" y="20.6452">Customer ID</tspan><tspan fill="#666666" font-size="12" x="-176.5" y="20.6452">: </tspan><tspan fill="#666666" font-size="12" x="-170.5" y="20.6452">#</tspan><tspan fill="#666666" font-size="12" x="-163.5" y="20.6452">38291</tspan><tspan fill="#666666" font-size="12" x="-246.5" y="41.2903">Last Contact</tspan><tspan fill="#666666" font-size="12" x="-177.5" y="41.2903">: </tspan><tspan fill="#666666" font-size="12" x="-171.5" y="41.2903">Mar </tspan><tspan fill="#666666" font-size="12" x="-148.5" y="41.2903">15</tspan><tspan fill="#666666" font-size="12" x="-134.5" y="41.2903">, </tspan><tspan fill="#666666" font-size="12" x="-128.5" y="41.2903">2025</tspan></text><path d="M288.3 142.406C289.584 142.406 290.625 143.447 290.625 144.731L290.625 144.731C290.625 146.015 289.584 147.056 288.3 147.056L141.825 147.056C140.541 147.056 139.5 146.015 139.5 144.731L139.5 144.731C139.5 143.447 140.541 142.406 141.825 142.406Z" fill="#E0E0E0" transform="scale(1.00072 1)"/><path d="M258.075 142.406C259.359 142.406 260.4 143.447 260.4 144.731L260.4 144.731C260.4 146.015 259.359 147.056 258.075 147.056L141.825 147.056C140.541 147.056 139.5 146.015 139.5 144.731L139.5 144.731C139.5 143.447 140.541 142.406 141.825 142.406Z" fill="#4CAF50" transform="scale(1.00072 1)"/><text fill="#666666" font-family="Arial,Arial_MSFontService,sans-serif" font-weight="400" font-size="12" transform="matrix(0.581667 0 0 0.58125 139.6 154)">Financial Health Score: <tspan font-size="12" x="130" y="0">80</tspan><tspan font-size="12" x="144" y="0">/</tspan><tspan font-size="12" x="147" y="0">100</tspan></text><path d="M201.113 162.75C205.607 162.75 209.25 166.393 209.25 170.887L209.25 170.887C209.25 175.382 205.607 179.025 201.113 179.025L147.637 179.025C143.143 179.025 139.5 175.382 139.5 170.887L139.5 170.887C139.5 166.393 143.143 162.75 147.637 162.75Z" fill="#E3F2FD" transform="scale(1.00072 1)"/><text fill="#1976D2" font-family="Arial,Arial_MSFontService,sans-serif" font-weight="400" font-size="12" transform="matrix(0.581667 0 0 0.58125 159.086 173)">Life Event</text><path d="M276.675 162.75C281.169 162.75 284.812 166.393 284.812 170.887L284.812 170.887C284.812 175.382 281.169 179.025 276.675 179.025L223.2 179.025C218.706 179.025 215.062 175.382 215.062 170.887L215.062 170.887C215.062 166.393 218.706 162.75 223.2 162.75Z" fill="#FFEBEE" transform="scale(1.00072 1)"/><text fill="#F44336" font-family="Arial,Arial_MSFontService,sans-serif" font-weight="400" font-size="12" transform="matrix(0.581667 0 0 0.58125 235.575 173)">3 <tspan font-size="12" x="10" y="0">Actions</tspan></text><path d="M299.344 197.625C300.949 197.625 302.25 198.926 302.25 200.531L302.25 287.719C302.25 289.324 300.949 290.625 299.344 290.625L130.781 290.625C129.176 290.625 127.875 289.324 127.875 287.719L127.875 200.531C127.875 198.926 129.176 197.625 130.781 197.625Z" stroke="#E0E0E0" stroke-width="0.58125" fill="#FFFFFF" transform="scale(1.00072 1)"/><path d="M129.619 197.625C130.261 197.625 130.781 198.145 130.781 198.788L130.781 289.462C130.781 290.105 130.261 290.625 129.619 290.625L129.038 290.625C128.395 290.625 127.875 290.105 127.875 289.462L127.875 198.788C127.875 198.145 128.395 197.625 129.038 197.625Z" fill="#2196F3" transform="scale(1.00072 1)"/><text fill="#333333" font-family="Arial,Arial_MSFontService,sans-serif" font-weight="700" font-size="16" transform="matrix(0.581667 0 0 0.58125 139.6 212)">Michael Chen</text><path d="M293.531 209.25C293.531 214.065 289.628 217.969 284.812 217.969 279.997 217.969 276.094 214.065 276.094 209.25 276.094 204.435 279.997 200.531 284.812 200.531 289.628 200.531 293.531 204.435 293.531 209.25Z" fill="#F44336" transform="scale(1.00072 1)"/><text fill="#FFFFFF" font-family="Arial,Arial_MSFontService,sans-serif" font-weight="400" font-size="14" transform="matrix(0.581667 0 0 0.58125 282.981 212)">↓<tspan fill="#666666" font-size="12" x="-246.5" y="20.6452">Customer ID</tspan><tspan fill="#666666" font-size="12" x="-176.5" y="20.6452">: </tspan><tspan fill="#666666" font-size="12" x="-170.5" y="20.6452">#</tspan><tspan fill="#666666" font-size="12" x="-163.5" y="20.6452">42587</tspan><tspan fill="#666666" font-size="12" x="-246.5" y="39.5699">Last Contact</tspan><tspan fill="#666666" font-size="12" x="-177.5" y="39.5699">: </tspan><tspan fill="#666666" font-size="12" x="-171.5" y="39.5699">Mar </tspan><tspan fill="#666666" font-size="12" x="-148.5" y="39.5699">10</tspan><tspan fill="#666666" font-size="12" x="-134.5" y="39.5699">, </tspan><tspan fill="#666666" font-size="12" x="-128.5" y="39.5699">2025</tspan></text><path d="M288.3 241.219C289.584 241.219 290.625 242.26 290.625 243.544L290.625 243.544C290.625 244.828 289.584 245.869 288.3 245.869L141.825 245.869C140.541 245.869 139.5 244.828 139.5 243.544L139.5 243.544C139.5 242.26 140.541 241.219 141.825 241.219Z" fill="#E0E0E0" transform="scale(1.00072 1)"/><path d="M227.85 241.219C229.134 241.219 230.175 242.26 230.175 243.544L230.175 243.544C230.175 244.828 229.134 245.869 227.85 245.869L141.825 245.869C140.541 245.869 139.5 244.828 139.5 243.544L139.5 243.544C139.5 242.26 140.541 241.219 141.825 241.219Z" fill="#FF9800" transform="scale(1.00072 1)"/><text fill="#666666" font-family="Arial,Arial_MSFontService,sans-serif" font-weight="400" font-size="12" transform="matrix(0.581667 0 0 0.58125 139.6 253)">Financial Health Score: <tspan font-size="12" x="130" y="0">60</tspan><tspan font-size="12" x="144" y="0">/</tspan><tspan font-size="12" x="147" y="0">100</tspan></text><path d="M201.113 261.562C205.607 261.562 209.25 265.206 209.25 269.7L209.25 269.7C209.25 274.194 205.607 277.837 201.113 277.837L147.637 277.837C143.143 277.837 139.5 274.194 139.5 269.7L139.5 269.7C139.5 265.206 143.143 261.562 147.637 261.562Z" fill="#E3F2FD" transform="scale(1.00072 1)"/><text fill="#1976D2" font-family="Arial,Arial_MSFontService,sans-serif" font-weight="400" font-size="12" transform="matrix(0.581667 0 0 0.58125 159.667 272)">Mortgage</text><path d="M276.675 261.562C281.169 261.562 284.812 265.206 284.812 269.7L284.812 269.7C284.812 274.194 281.169 277.837 276.675 277.837L223.2 277.837C218.706 277.837 215.062 274.194 215.062 269.7L215.062 269.7C215.062 265.206 218.706 261.562 223.2 261.562Z" fill="#FFEBEE" transform="scale(1.00072 1)"/><text fill="#F44336" font-family="Arial,Arial_MSFontService,sans-serif" font-weight="400" font-size="12" transform="matrix(0.581667 0 0 0.58125 235.575 272)">5 <tspan font-size="12" x="10" y="0">Actions</tspan></text><path d="M299.344 296.438C300.949 296.438 302.25 297.739 302.25 299.344L302.25 386.531C302.25 388.136 300.949 389.438 299.344 389.438L130.781 389.438C129.176 389.438 127.875 388.136 127.875 386.531L127.875 299.344C127.875 297.739 129.176 296.438 130.781 296.438Z" stroke="#E0E0E0" stroke-width="0.58125" fill="#FFFFFF" transform="scale(1.00072 1)"/><path d="M129.619 296.438C130.261 296.438 130.781 296.958 130.781 297.6L130.781 388.275C130.781 388.917 130.261 389.438 129.619 389.438L129.038 389.438C128.395 389.438 127.875 388.917 127.875 388.275L127.875 297.6C127.875 296.958 128.395 296.438 129.038 296.438Z" fill="#4CAF50" transform="scale(1.00072 1)"/><text fill="#333333" font-family="Arial,Arial_MSFontService,sans-serif" font-weight="700" font-size="16" transform="matrix(0.581667 0 0 0.58125 139.6 311)">Emily Rodriguez</text><path d="M293.531 308.062C293.531 312.878 289.628 316.781 284.812 316.781 279.997 316.781 276.094 312.878 276.094 308.062 276.094 303.247 279.997 299.344 284.812 299.344 289.628 299.344 293.531 303.247 293.531 308.062Z" fill="#4CAF50" transform="scale(1.00072 1)"/><text fill="#FFFFFF" font-family="Arial,Arial_MSFontService,sans-serif" font-weight="400" font-size="14" transform="matrix(0.581667 0 0 0.58125 282.981 311)">↑<tspan fill="#666666" font-size="12" x="-246.5" y="20.6452">Customer ID</tspan><tspan fill="#666666" font-size="12" x="-176.5" y="20.6452">: </tspan><tspan fill="#666666" font-size="12" x="-170.5" y="20.6452">#</tspan><tspan fill="#666666" font-size="12" x="-163.5" y="20.6452">29145</tspan><tspan fill="#666666" font-size="12" x="-246.5" y="39.5699">Last Contact</tspan><tspan fill="#666666" font-size="12" x="-177.5" y="39.5699">: </tspan><tspan fill="#666666" font-size="12" x="-171.5" y="39.5699">Mar </tspan><tspan fill="#666666" font-size="12" x="-148.5" y="39.5699">18</tspan><tspan fill="#666666" font-size="12" x="-134.5" y="39.5699">, </tspan><tspan fill="#666666" font-size="12" x="-128.5" y="39.5699">2025</tspan></text><path d="M288.3 340.031C289.584 340.031 290.625 341.072 290.625 342.356L290.625 342.356C290.625 343.64 289.584 344.681 288.3 344.681L141.825 344.681C140.541 344.681 139.5 343.64 139.5 342.356L139.5 342.356C139.5 341.072 140.541 340.031 141.825 340.031Z" fill="#E0E0E0" transform="scale(1.00072 1)"/><path d="M273.188 340.031C274.472 340.031 275.513 341.072 275.513 342.356L275.513 342.356C275.513 343.64 274.472 344.681 273.188 344.681L141.825 344.681C140.541 344.681 139.5 343.64 139.5 342.356L139.5 342.356C139.5 341.072 140.541 340.031 141.825 340.031Z" fill="#4CAF50" transform="scale(1.00072 1)"/><text fill="#666666" font-family="Arial,Arial_MSFontService,sans-serif" font-weight="400" font-size="12" transform="matrix(0.581667 0 0 0.58125 139.6 352)">Financial Health Score: <tspan font-size="12" x="130" y="0">90</tspan><tspan font-size="12" x="144" y="0">/</tspan><tspan font-size="12" x="147" y="0">100</tspan></text><path d="M201.113 360.375C205.607 360.375 209.25 364.018 209.25 368.513L209.25 368.513C209.25 373.007 205.607 376.65 201.113 376.65L147.637 376.65C143.143 376.65 139.5 373.007 139.5 368.513L139.5 368.513C139.5 364.018 143.143 360.375 147.637 360.375Z" fill="#E3F2FD" transform="scale(1.00072 1)"/><text fill="#1976D2" font-family="Arial,Arial_MSFontService,sans-serif" font-weight="400" font-size="12" transform="matrix(0.581667 0 0 0.58125 155.014 371)">Investments</text><path d="M276.675 360.375C281.169 360.375 284.812 364.018 284.812 368.513L284.812 368.513C284.812 373.007 281.169 376.65 276.675 376.65L223.2 376.65C218.706 376.65 215.062 373.007 215.062 368.513L215.062 368.513C215.062 364.018 218.706 360.375 223.2 360.375Z" fill="#FFEBEE" transform="scale(1.00072 1)"/><text fill="#F44336" font-family="Arial,Arial_MSFontService,sans-serif" font-weight="400" font-size="12" transform="matrix(0.581667 0 0 0.58125 235.575 371)">2 <tspan font-size="12" x="10" y="0">Actions</tspan></text><path d="M682.969 98.8125C684.574 98.8125 685.875 100.114 685.875 101.719L685.875 450.469C685.875 452.074 684.574 453.375 682.969 453.375L316.781 453.375C315.176 453.375 313.875 452.074 313.875 450.469L313.875 101.719C313.875 100.114 315.176 98.8125 316.781 98.8125Z" stroke="#E0E0E0" stroke-width="0.58125" fill="#FFFFFF" transform="scale(1.00072 1)"/><path d="M682.969 98.8125C684.574 98.8125 685.875 100.114 685.875 101.719L685.875 142.406C685.875 144.011 684.574 145.312 682.969 145.312L316.781 145.312C315.176 145.312 313.875 144.011 313.875 142.406L313.875 101.719C313.875 100.114 315.176 98.8125 316.781 98.8125Z" fill="#F5F5F5" transform="scale(1.00072 1)"/><text fill="#333333" font-family="Arial,Arial_MSFontService,sans-serif" font-weight="700" font-size="20" transform="matrix(0.581667 0 0 0.58125 331.55 122)">Sarah Johnson<tspan fill="#666666" font-weight="400" font-size="14" x="0" y="25.8064">Premium Banking Customer since </tspan><tspan fill="#666666" font-weight="400" font-size="14" x="216" y="25.8064">2021</tspan></text><path d="M612.638 113.344C617.774 113.344 621.938 117.507 621.938 122.644L621.938 122.644C621.938 127.78 617.774 131.944 612.638 131.944L584.737 131.944C579.601 131.944 575.438 127.78 575.438 122.644L575.438 122.644C575.438 117.507 579.601 113.344 584.737 113.344Z" fill="#1976D2" transform="scale(1.00072 1)"/><text fill="#FFFFFF" font-family="Arial,Arial_MSFontService,sans-serif" font-weight="400" font-size="14" transform="matrix(0.581667 0 0 0.58125 584.866 125)">Contact</text><path d="M664.95 113.344C670.086 113.344 674.25 117.507 674.25 122.644L674.25 122.644C674.25 127.78 670.086 131.944 664.95 131.944L637.05 131.944C631.914 131.944 627.75 127.78 627.75 122.644L627.75 122.644C627.75 117.507 631.914 113.344 637.05 113.344Z" stroke="#1976D2" stroke-width="0.58125" fill="#FFFFFF" transform="scale(1.00072 1)"/><text fill="#1976D2" font-family="Arial,Arial_MSFontService,sans-serif" font-weight="400" font-size="14" transform="matrix(0.581667 0 0 0.58125 640.997 125)">Notes</text><path d="M313.875 145.312 685.875 145.312 685.875 168.562 313.875 168.562Z" fill="#FFFFFF" transform="scale(1.00072 1)"/><path d="M313.875 167.981 406.875 167.981 406.875 168.562 313.875 168.562Z" stroke="#1976D2" stroke-width="1.1625" fill="#1976D2" transform="scale(1.00072 1)"/><text fill="#1976D2" font-family="Arial,Arial_MSFontService,sans-serif" font-weight="700" font-size="14" transform="matrix(0.581667 0 0 0.58125 340.857 160)">Overview<tspan fill="#666666" font-weight="400" font-size="14" x="143.5" y="0">Financial Health</tspan><tspan fill="#666666" font-weight="400" font-size="14" x="326" y="0">Products</tspan><tspan fill="#666666" font-weight="400" font-size="14" x="492.5" y="0">History</tspan><tspan fill="#333333" font-size="16" x="-26" y="44.7312">Financial Summary</tspan></text><path d="M427.219 197.625C428.824 197.625 430.125 198.926 430.125 200.531L430.125 247.031C430.125 248.636 428.824 249.938 427.219 249.938L328.406 249.938C326.801 249.938 325.5 248.636 325.5 247.031L325.5 200.531C325.5 198.926 326.801 197.625 328.406 197.625Z" fill="#E3F2FD" transform="scale(1.00072 1)"/><text fill="#666666" font-family="Arial,Arial_MSFontService,sans-serif" font-weight="400" font-size="14" transform="matrix(0.581667 0 0 0.58125 337.367 212)">Total Balance<tspan fill="#333333" font-weight="700" font-size="24" x="0" y="30.9677">$</tspan><tspan fill="#333333" font-weight="700" font-size="24" x="13" y="30.9677">128</tspan><tspan fill="#333333" font-weight="700" font-size="24" x="52" y="30.9677">,</tspan><tspan fill="#333333" font-weight="700" font-size="24" x="59" y="30.9677">450</tspan><tspan fill="#4CAF50" font-size="12" x="0" y="49.8925">↑ </tspan><tspan fill="#4CAF50" font-size="12" x="8.99998" y="49.8925">3</tspan><tspan fill="#4CAF50" font-size="12" x="16" y="49.8925">.</tspan><tspan fill="#4CAF50" font-size="12" x="19" y="49.8925">2</tspan><tspan fill="#4CAF50" font-size="12" x="26" y="49.8925">% </tspan><tspan fill="#4CAF50" font-size="12" x="40" y="49.8925">from last month</tspan></text><path d="M543.469 197.625C545.074 197.625 546.375 198.926 546.375 200.531L546.375 247.031C546.375 248.636 545.074 249.938 543.469 249.938L444.656 249.938C443.051 249.938 441.75 248.636 441.75 247.031L441.75 200.531C441.75 198.926 443.051 197.625 444.656 197.625Z" fill="#E8F5E9" transform="scale(1.00072 1)"/><text fill="#666666" font-family="Arial,Arial_MSFontService,sans-serif" font-weight="400" font-size="14" transform="matrix(0.581667 0 0 0.58125 453.7 212)">Investments<tspan fill="#333333" font-weight="700" font-size="24" x="0" y="30.9677">$</tspan><tspan fill="#333333" font-weight="700" font-size="24" x="13" y="30.9677">85</tspan><tspan fill="#333333" font-weight="700" font-size="24" x="39" y="30.9677">,</tspan><tspan fill="#333333" font-weight="700" font-size="24" x="46" y="30.9677">200</tspan><tspan fill="#4CAF50" font-size="12" x="0" y="49.8925">↑ </tspan><tspan fill="#4CAF50" font-size="12" x="8.99998" y="49.8925">2</tspan><tspan fill="#4CAF50" font-size="12" x="16" y="49.8925">.</tspan><tspan fill="#4CAF50" font-size="12" x="19" y="49.8925">8</tspan><tspan fill="#4CAF50" font-size="12" x="26" y="49.8925">% </tspan><tspan fill="#4CAF50" font-size="12" x="40" y="49.8925">from last month</tspan></text><path d="M671.344 197.625C672.949 197.625 674.25 198.926 674.25 200.531L674.25 247.031C674.25 248.636 672.949 249.938 671.344 249.938L560.906 249.938C559.301 249.938 558 248.636 558 247.031L558 200.531C558 198.926 559.301 197.625 560.906 197.625Z" fill="#FFF3E0" transform="scale(1.00072 1)"/><text fill="#666666" font-family="Arial,Arial_MSFontService,sans-serif" font-weight="400" font-size="14" transform="matrix(0.581667 0 0 0.58125 570.033 212)">Loans<tspan fill="#333333" font-weight="700" font-size="24" x="0" y="30.9677">$</tspan><tspan fill="#333333" font-weight="700" font-size="24" x="13" y="30.9677">320</tspan><tspan fill="#333333" font-weight="700" font-size="24" x="52.0001" y="30.9677">,</tspan><tspan fill="#333333" font-weight="700" font-size="24" x="59" y="30.9677">000</tspan><tspan fill="#F44336" font-size="12" x="0" y="49.8925">↑ </tspan><tspan fill="#F44336" font-size="12" x="8.99998" y="49.8925">0</tspan><tspan fill="#F44336" font-size="12" x="16.0001" y="49.8925">% </tspan><tspan fill="#F44336" font-size="12" x="30" y="49.8925">from last month</tspan><tspan fill="#333333" font-weight="700" font-size="16" x="-420" y="94.6236">Detected Life Events</tspan></text><path d="M682.969 279C684.574 279 685.875 280.301 685.875 281.906L685.875 316.781C685.875 318.386 684.574 319.688 682.969 319.688L328.406 319.688C326.801 319.688 325.5 318.386 325.5 316.781L325.5 281.906C325.5 280.301 326.801 279 328.406 279Z" stroke="#673AB7" stroke-width="0.58125" fill="#EDE7F6" transform="scale(1.00072 1)"/><path d="M354.562 299.344C354.562 305.764 349.358 310.969 342.938 310.969 336.517 310.969 331.312 305.764 331.312 299.344 331.312 292.923 336.517 287.719 342.938 287.719 349.358 287.719 354.562 292.923 354.562 299.344Z" fill="#673AB7" transform="scale(1.00072 1)"/><path d="M7.60938-9.67188 7.60938-12.6641C7.60938-12.7474 7.57943-12.8177 7.51953-12.875 7.45963-12.9323 7.38802-12.9609 7.30469-12.9609L5.66406-12.9609C5.57552-12.9609 5.5013-12.9323 5.44141-12.875 5.38151-12.8177 5.35156-12.7474 5.35156-12.6641L5.35156-7.79688 4.78906-7.32812 4.78906 1.67969 17.1797 1.67969 17.1797-6.76562 11.0234-12.5234Z" fill="#F3C07B" transform="matrix(0.581667 0 0 0.58125 336.785 302)"/><path d="M10.9375 0.554688C10.9635 0.554688 10.9818 0.539062 10.9922 0.507812L10.9922-5.42188C10.9922-5.63021 10.9167-5.8099 10.7656-5.96094 10.6146-6.11198 10.4349-6.1875 10.2266-6.1875L7.25-6.1875C7.03646-6.1875 6.85547-6.11198 6.70703-5.96094 6.55859-5.8099 6.48438-5.63021 6.48438-5.42188L6.48438 0.507812C6.48438 0.539062 6.4974 0.554688 6.52344 0.554688Z" fill="#8C5543" transform="matrix(0.581667 0 0 0.58125 336.785 302)"/><path d="M10.1417-2.82751C10.1029-2.82751 10.0665-2.8348 10.0324-2.84937 9.99835-2.86393 9.96844-2.88409 9.94269-2.90985 9.91693-2.93561 9.89677-2.96549 9.8822-2.99951 9.86763-3.03353 9.86035-3.06999 9.86035-3.10889 9.86035-3.14779 9.86763-3.18424 9.8822-3.21826 9.89677-3.25228 9.91693-3.28217 9.94269-3.30792 9.96844-3.33368 9.99835-3.35386 10.0324-3.36847 10.0665-3.38308 10.1029-3.39038 10.1417-3.39038 10.1806-3.39038 10.2171-3.38308 10.2511-3.36847 10.2851-3.35386 10.315-3.33368 10.3408-3.30792 10.3666-3.28217 10.3868-3.25228 10.4014-3.21826 10.4159-3.18424 10.4232-3.14779 10.4232-3.10889 10.4232-3.06999 10.4159-3.03353 10.4014-2.99951 10.3868-2.96549 10.3666-2.93561 10.3408-2.90985 10.315-2.88409 10.2851-2.86393 10.2511-2.84937 10.2171-2.8348 10.1806-2.82751 10.1417-2.82751Z" fill="#402A32" transform="matrix(0.581667 0 0 0.58125 336.785 302)"/><path d="M10.9609 1.11719C11.1172 1.11719 11.25 1.0625 11.3594 0.953125 11.4688 0.84375 11.5234 0.710938 11.5234 0.554688 11.5234 0.398438 11.4688 0.265625 11.3594 0.15625 11.25 0.046875 11.1172-0.0078125 10.9609-0.0078125L6.48438-0.0078125C6.32812-0.0078125 6.19531 0.046875 6.08594 0.15625 5.97656 0.265625 5.92188 0.398438 5.92188 0.554688 5.92188 0.710938 5.97656 0.84375 6.08594 0.953125 6.19531 1.0625 6.32812 1.11719 6.48438 1.11719Z" fill="#D3D3D3" transform="matrix(0.581667 0 0 0.58125 336.785 302)"/><path d="M18.8672 1.67969 18.8672 1.63281C18.8672 1.33073 18.7617 1.07552 18.5508 0.867188 18.3398 0.658854 18.0885 0.554688 17.7969 0.554688L4.17969 0.554688C3.88281 0.554688 3.62891 0.658854 3.41797 0.867188 3.20703 1.07552 3.10156 1.33073 3.10156 1.63281L3.10156 1.67969Z" fill="#00F397" transform="matrix(0.581667 0 0 0.58125 336.785 302)"/><path d="M11.4844-13.3281C11.349-13.4583 11.1862-13.5234 10.9961-13.5234 10.806-13.5234 10.6458-13.4583 10.5156-13.3281L3.30469-6.22656C3.16927-6.09635 3.10156-5.9375 3.10156-5.75 3.10156-5.5625 3.16927-5.40365 3.30469-5.27344 3.4401-5.14323 3.60286-5.07812 3.79297-5.07812 3.98307-5.07812 4.14323-5.14323 4.27344-5.27344L11-11.8984 17.6953-5.29688C17.8307-5.16146 17.9935-5.09375 18.1836-5.09375 18.3737-5.09375 18.5339-5.16146 18.6641-5.29688 18.7995-5.42708 18.8672-5.58464 18.8672-5.76953 18.8672-5.95443 18.7995-6.11458 18.6641-6.25Z" fill="#F8312F" transform="matrix(0.581667 0 0 0.58125 336.785 302)"/><path d="M15.0078-2.82031C15.1432-2.82031 15.2578-2.86849 15.3516-2.96484 15.4453-3.0612 15.4922-3.17448 15.4922-3.30469L15.4922-5.71875C15.4922-5.85417 15.444-5.96875 15.3477-6.0625 15.2513-6.15625 15.138-6.20312 15.0078-6.20312L12.5938-6.20312C12.4583-6.20312 12.3438-6.15495 12.25-6.05859 12.1562-5.96224 12.1094-5.84896 12.1094-5.71875L12.1094-3.30469C12.1094-3.17448 12.1562-3.0612 12.25-2.96484 12.3438-2.86849 12.4583-2.82031 12.5938-2.82031Z" fill="#83CBFF" transform="matrix(0.581667 0 0 0.58125 336.785 302)"/><text fill="#333333" font-family="Arial,Arial_MSFontService,sans-serif" font-weight="700" font-size="16" transform="matrix(0.581667 0 0 0.58125 363.542 294)">Potential Home Purchase<tspan fill="#666666" font-weight="400" font-size="14" x="0" y="18.9247">Multiple searches for real estate sites and increased savings pattern detected</tspan></text><path d="M647.513 290.625C652.649 290.625 656.812 294.789 656.812 299.925L656.812 299.925C656.812 305.061 652.649 309.225 647.513 309.225L573.112 309.225C567.976 309.225 563.812 305.061 563.812 299.925L563.812 299.925C563.812 294.789 567.976 290.625 573.112 290.625Z" fill="#673AB7" transform="scale(1.00072 1)"/><text fill="#FFFFFF" font-family="Arial,Arial_MSFontService,sans-serif" font-weight="400" font-size="14" transform="matrix(0.581667 0 0 0.58125 588.647 302)">View Details<tspan fill="#333333" font-weight="700" font-size="16" x="-452" y="60.215">Next Best Actions</tspan></text><path d="M682.969 348.75C684.574 348.75 685.875 350.051 685.875 351.656L685.875 374.906C685.875 376.511 684.574 377.812 682.969 377.812L328.406 377.812C326.801 377.812 325.5 376.511 325.5 374.906L325.5 351.656C325.5 350.051 326.801 348.75 328.406 348.75Z" stroke="#E0E0E0" stroke-width="0.58125" fill="#FFFFFF" transform="scale(1.00072 1)"/><path d="M327.244 348.75C327.886 348.75 328.406 349.27 328.406 349.913L328.406 376.65C328.406 377.292 327.886 377.812 327.244 377.812L326.663 377.812C326.02 377.812 325.5 377.292 325.5 376.65L325.5 349.913C325.5 349.27 326.02 348.75 326.663 348.75Z" fill="#F44336" transform="scale(1.00072 1)"/><text fill="#333333" font-family="Arial,Arial_MSFontService,sans-serif" font-weight="700" font-size="14" transform="matrix(0.581667 0 0 0.58125 337.367 366)">Offer Home Mortgage Pre<tspan font-size="14" x="180" y="0">-</tspan><tspan font-size="14" x="185" y="0">Approval</tspan></text><path d="M659.719 354.562C664.534 354.562 668.438 358.466 668.438 363.281L668.438 363.281C668.438 368.096 664.534 372 659.719 372L607.406 372C602.591 372 598.688 368.096 598.688 363.281L598.688 363.281C598.688 358.466 602.591 354.562 607.406 354.562Z" fill="#F44336" transform="scale(1.00072 1)"/><text fill="#FFFFFF" font-family="Arial,Arial_MSFontService,sans-serif" font-weight="400" font-size="14" transform="matrix(0.581667 0 0 0.58125 611.913 366)">High Priority</text><path d="M682.969 383.625C684.574 383.625 685.875 384.926 685.875 386.531L685.875 409.781C685.875 411.386 684.574 412.688 682.969 412.688L328.406 412.688C326.801 412.688 325.5 411.386 325.5 409.781L325.5 386.531C325.5 384.926 326.801 383.625 328.406 383.625Z" stroke="#E0E0E0" stroke-width="0.58125" fill="#FFFFFF" transform="scale(1.00072 1)"/><path d="M327.244 383.625C327.886 383.625 328.406 384.145 328.406 384.788L328.406 411.525C328.406 412.167 327.886 412.688 327.244 412.688L326.663 412.688C326.02 412.688 325.5 412.167 325.5 411.525L325.5 384.788C325.5 384.145 326.02 383.625 326.663 383.625Z" fill="#FF9800" transform="scale(1.00072 1)"/><text fill="#333333" font-family="Arial,Arial_MSFontService,sans-serif" font-weight="700" font-size="14" transform="matrix(0.581667 0 0 0.58125 337.367 401)">Schedule Financial Planning Consultation</text><path d="M659.719 389.438C664.534 389.438 668.438 393.341 668.438 398.156L668.438 398.156C668.438 402.971 664.534 406.875 659.719 406.875L607.406 406.875C602.591 406.875 598.688 402.971 598.688 398.156L598.688 398.156C598.688 393.341 602.591 389.438 607.406 389.438Z" fill="#FF9800" transform="scale(1.00072 1)"/><text fill="#FFFFFF" font-family="Arial,Arial_MSFontService,sans-serif" font-weight="400" font-size="14" transform="matrix(0.581667 0 0 0.58125 605.806 401)">Medium Priority</text><path d="M682.969 418.5C684.574 418.5 685.875 419.801 685.875 421.406L685.875 444.656C685.875 446.261 684.574 447.562 682.969 447.562L328.406 447.562C326.801 447.562 325.5 446.261 325.5 444.656L325.5 421.406C325.5 419.801 326.801 418.5 328.406 418.5Z" stroke="#E0E0E0" stroke-width="0.58125" fill="#FFFFFF" transform="scale(1.00072 1)"/><path d="M327.244 418.5C327.886 418.5 328.406 419.02 328.406 419.663L328.406 446.4C328.406 447.042 327.886 447.562 327.244 447.562L326.663 447.562C326.02 447.562 325.5 447.042 325.5 446.4L325.5 419.663C325.5 419.02 326.02 418.5 326.663 418.5Z" fill="#2196F3" transform="scale(1.00072 1)"/><text fill="#333333" font-family="Arial,Arial_MSFontService,sans-serif" font-weight="700" font-size="14" transform="matrix(0.581667 0 0 0.58125 337.367 436)">Recommend Home Insurance Options</text><path d="M659.719 424.312C664.534 424.312 668.438 428.216 668.438 433.031L668.438 433.031C668.438 437.846 664.534 441.75 659.719 441.75L607.406 441.75C602.591 441.75 598.688 437.846 598.688 433.031L598.688 433.031C598.688 428.216 602.591 424.312 607.406 424.312Z" fill="#2196F3" transform="scale(1.00072 1)"/><text fill="#FFFFFF" font-family="Arial,Arial_MSFontService,sans-serif" font-weight="400" font-size="14" transform="matrix(0.581667 0 0 0.58125 605.515 436)">Regular Priority</text></g></svg>