<svg width="698" height="543" xmlns="http://www.w3.org/2000/svg" xmlns:xlink="http://www.w3.org/1999/xlink" overflow="hidden"><defs><clipPath id="clip0"><rect x="0" y="0" width="698" height="543"/></clipPath></defs><g clip-path="url(#clip0)"><text font-family="Arial,Arial_MSFontService,sans-serif" font-weight="700" font-size="20" transform="matrix(0.775556 0 0 0.775714 221.421 23)">RecomMind AI <tspan font-size="20" x="140" y="0">- </tspan>User Flow for MVP<tspan fill="#1976D2" font-size="18" x="-167" y="39.9632">Customer Journey</tspan></text><path d="M100.822 100.822C100.822 113.672 90.4054 124.089 77.5556 124.089 64.7057 124.089 54.2889 113.672 54.2889 100.822 54.2889 87.9724 64.7057 77.5556 77.5556 77.5556 90.4054 77.5556 100.822 87.9724 100.822 100.822Z" stroke="#1976D2" stroke-width="1.55111" fill="#BBDEFB" transform="scale(1 1.0002)"/><text font-family="Arial,Arial_MSFontService,sans-serif" font-weight="700" font-size="14" transform="matrix(0.775556 0 0 0.775714 74.4533 105)">1</text><path d="M224.911 77.5556C229.194 77.5556 232.667 81.0278 232.667 85.3111L232.667 116.333C232.667 120.617 229.194 124.089 224.911 124.089L124.089 124.089C119.806 124.089 116.333 120.617 116.333 116.333L116.333 85.3111C116.333 81.0278 119.806 77.5556 124.089 77.5556Z" stroke="#1976D2" stroke-width="1.55111" fill="#E3F2FD" transform="scale(1 1.0002)"/><text font-family="Arial,Arial_MSFontService,sans-serif" font-weight="700" font-size="14" transform="matrix(0.775556 0 0 0.775714 159.377 105)">Login</text><path d="M100.822 178.378C100.822 191.228 90.4054 201.644 77.5556 201.644 64.7057 201.644 54.2889 191.228 54.2889 178.378 54.2889 165.528 64.7057 155.111 77.5556 155.111 90.4054 155.111 100.822 165.528 100.822 178.378Z" stroke="#1976D2" stroke-width="1.55111" fill="#BBDEFB" transform="scale(1 1.0002)"/><text font-family="Arial,Arial_MSFontService,sans-serif" font-weight="700" font-size="14" transform="matrix(0.775556 0 0 0.775714 74.4533 182)">2</text><path d="M224.911 155.111C229.194 155.111 232.667 158.583 232.667 162.867L232.667 193.889C232.667 198.172 229.194 201.644 224.911 201.644L124.089 201.644C119.806 201.644 116.333 198.172 116.333 193.889L116.333 162.867C116.333 158.583 119.806 155.111 124.089 155.111Z" stroke="#1976D2" stroke-width="1.55111" fill="#E3F2FD" transform="scale(1 1.0002)"/><text font-family="Arial,Arial_MSFontService,sans-serif" font-weight="700" font-size="14" transform="matrix(0.775556 0 0 0.775714 130.681 182)">Dashboard View</text><path d="M100.822 255.933C100.822 268.783 90.4054 279.2 77.5556 279.2 64.7057 279.2 54.2889 268.783 54.2889 255.933 54.2889 243.084 64.7057 232.667 77.5556 232.667 90.4054 232.667 100.822 243.084 100.822 255.933Z" stroke="#1976D2" stroke-width="1.55111" fill="#BBDEFB" transform="scale(1 1.0002)"/><text font-family="Arial,Arial_MSFontService,sans-serif" font-weight="700" font-size="14" transform="matrix(0.775556 0 0 0.775714 74.4533 260)">3</text><path d="M224.911 232.667C229.194 232.667 232.667 236.139 232.667 240.422L232.667 271.444C232.667 275.728 229.194 279.2 224.911 279.2L124.089 279.2C119.806 279.2 116.333 275.728 116.333 271.444L116.333 240.422C116.333 236.139 119.806 232.667 124.089 232.667Z" stroke="#1976D2" stroke-width="1.55111" fill="#E3F2FD" transform="scale(1 1.0002)"/><text font-family="Arial,Arial_MSFontService,sans-serif" font-weight="700" font-size="14" transform="matrix(0.775556 0 0 0.775714 131.069 252)">Financial Health<tspan font-size="14" x="13.5" y="20.6262">Assessment</tspan></text><path d="M100.822 333.489C100.822 346.339 90.4054 356.756 77.5556 356.756 64.7057 356.756 54.2889 346.339 54.2889 333.489 54.2889 320.639 64.7057 310.222 77.5556 310.222 90.4054 310.222 100.822 320.639 100.822 333.489Z" stroke="#1976D2" stroke-width="1.55111" fill="#BBDEFB" transform="scale(1 1.0002)"/><text font-family="Arial,Arial_MSFontService,sans-serif" font-weight="700" font-size="14" transform="matrix(0.775556 0 0 0.775714 74.4533 337)">4</text><path d="M224.911 310.222C229.194 310.222 232.667 313.694 232.667 317.978L232.667 349C232.667 353.283 229.194 356.756 224.911 356.756L124.089 356.756C119.806 356.756 116.333 353.283 116.333 349L116.333 317.978C116.333 313.694 119.806 310.222 124.089 310.222Z" stroke="#1976D2" stroke-width="1.55111" fill="#E3F2FD" transform="scale(1 1.0002)"/><text font-family="Arial,Arial_MSFontService,sans-serif" font-weight="700" font-size="14" transform="matrix(0.775556 0 0 0.775714 153.172 330)">Product<tspan font-size="14" x="-37.5" y="19.337">Recommendations</tspan></text><path d="M100.822 411.044C100.822 423.894 90.4054 434.311 77.5556 434.311 64.7057 434.311 54.2889 423.894 54.2889 411.044 54.2889 398.195 64.7057 387.778 77.5556 387.778 90.4054 387.778 100.822 398.195 100.822 411.044Z" stroke="#1976D2" stroke-width="1.55111" fill="#BBDEFB" transform="scale(1 1.0002)"/><text font-family="Arial,Arial_MSFontService,sans-serif" font-weight="700" font-size="14" transform="matrix(0.775556 0 0 0.775714 74.4533 415)">5</text><path d="M224.911 387.778C229.194 387.778 232.667 391.25 232.667 395.533L232.667 426.556C232.667 430.839 229.194 434.311 224.911 434.311L124.089 434.311C119.806 434.311 116.333 430.839 116.333 426.556L116.333 395.533C116.333 391.25 119.806 387.778 124.089 387.778Z" stroke="#1976D2" stroke-width="1.55111" fill="#E3F2FD" transform="scale(1 1.0002)"/><text font-family="Arial,Arial_MSFontService,sans-serif" font-weight="700" font-size="14" transform="matrix(0.775556 0 0 0.775714 146.968 407)">Life Event<tspan font-size="14" x="-4.49999" y="20.6262">Notification</tspan></text><path d="M100.822 488.6C100.822 501.45 90.4054 511.867 77.5556 511.867 64.7057 511.867 54.2889 501.45 54.2889 488.6 54.2889 475.75 64.7057 465.333 77.5556 465.333 90.4054 465.333 100.822 475.75 100.822 488.6Z" stroke="#1976D2" stroke-width="1.55111" fill="#BBDEFB" transform="scale(1 1.0002)"/><text font-family="Arial,Arial_MSFontService,sans-serif" font-weight="700" font-size="14" transform="matrix(0.775556 0 0 0.775714 74.4533 493)">6</text><path d="M224.911 465.333C229.194 465.333 232.667 468.806 232.667 473.089L232.667 504.111C232.667 508.394 229.194 511.867 224.911 511.867L124.089 511.867C119.806 511.867 116.333 508.394 116.333 504.111L116.333 473.089C116.333 468.806 119.806 465.333 124.089 465.333Z" stroke="#1976D2" stroke-width="1.55111" fill="#E3F2FD" transform="scale(1 1.0002)"/><text font-family="Arial,Arial_MSFontService,sans-serif" font-weight="700" font-size="14" transform="matrix(0.775556 0 0 0.775714 126.028 485)">Product Selection<tspan font-size="14" x="23.5" y="19.337">Application</tspan></text><path d="M77.5556 124.089 77.5556 155.111" stroke="#1976D2" stroke-width="1.55111" fill="none" transform="scale(1 1.0002)"/><path d="M77.5556 201.644 77.5556 232.667" stroke="#1976D2" stroke-width="1.55111" fill="none" transform="scale(1 1.0002)"/><path d="M77.5556 279.2 77.5556 310.222" stroke="#1976D2" stroke-width="1.55111" fill="none" transform="scale(1 1.0002)"/><path d="M77.5556 356.756 77.5556 387.778" stroke="#1976D2" stroke-width="1.55111" fill="none" transform="scale(1 1.0002)"/><path d="M77.5556 434.311 77.5556 465.333" stroke="#1976D2" stroke-width="1.55111" fill="none" transform="scale(1 1.0002)"/><text fill="#4CAF50" font-family="Arial,Arial_MSFontService,sans-serif" font-weight="700" font-size="18" transform="matrix(0.775556 0 0 0.775714 400.962 54)">Relationship Manager Journey</text><path d="M449.822 100.822C449.822 113.672 439.405 124.089 426.556 124.089 413.706 124.089 403.289 113.672 403.289 100.822 403.289 87.9724 413.706 77.5556 426.556 77.5556 439.405 77.5556 449.822 87.9724 449.822 100.822Z" stroke="#4CAF50" stroke-width="1.55111" fill="#C8E6C9" transform="scale(1 1.0002)"/><text font-family="Arial,Arial_MSFontService,sans-serif" font-weight="700" font-size="14" transform="matrix(0.775556 0 0 0.775714 423.453 105)">1</text><path d="M573.911 77.5556C578.194 77.5556 581.667 81.0278 581.667 85.3111L581.667 116.333C581.667 120.617 578.194 124.089 573.911 124.089L473.089 124.089C468.806 124.089 465.333 120.617 465.333 116.333L465.333 85.3111C465.333 81.0278 468.806 77.5556 473.089 77.5556Z" stroke="#4CAF50" stroke-width="1.55111" fill="#E8F5E9" transform="scale(1 1.0002)"/><text font-family="Arial,Arial_MSFontService,sans-serif" font-weight="700" font-size="14" transform="matrix(0.775556 0 0 0.775714 497.907 105)">RM Login</text><path d="M449.822 178.378C449.822 191.228 439.405 201.644 426.556 201.644 413.706 201.644 403.289 191.228 403.289 178.378 403.289 165.528 413.706 155.111 426.556 155.111 439.405 155.111 449.822 165.528 449.822 178.378Z" stroke="#4CAF50" stroke-width="1.55111" fill="#C8E6C9" transform="scale(1 1.0002)"/><text font-family="Arial,Arial_MSFontService,sans-serif" font-weight="700" font-size="14" transform="matrix(0.775556 0 0 0.775714 423.453 182)">2</text><path d="M573.911 155.111C578.194 155.111 581.667 158.583 581.667 162.867L581.667 193.889C581.667 198.172 578.194 201.644 573.911 201.644L473.089 201.644C468.806 201.644 465.333 198.172 465.333 193.889L465.333 162.867C465.333 158.583 468.806 155.111 473.089 155.111Z" stroke="#4CAF50" stroke-width="1.55111" fill="#E8F5E9" transform="scale(1 1.0002)"/><text font-family="Arial,Arial_MSFontService,sans-serif" font-weight="700" font-size="14" transform="matrix(0.775556 0 0 0.775714 497.131 175)">Customer<tspan font-size="14" x="0" y="19.337">Overview</tspan></text><path d="M449.822 255.933C449.822 268.783 439.405 279.2 426.556 279.2 413.706 279.2 403.289 268.783 403.289 255.933 403.289 243.084 413.706 232.667 426.556 232.667 439.405 232.667 449.822 243.084 449.822 255.933Z" stroke="#4CAF50" stroke-width="1.55111" fill="#C8E6C9" transform="scale(1 1.0002)"/><text font-family="Arial,Arial_MSFontService,sans-serif" font-weight="700" font-size="14" transform="matrix(0.775556 0 0 0.775714 423.453 260)">3</text><path d="M573.911 232.667C578.194 232.667 581.667 236.139 581.667 240.422L581.667 271.444C581.667 275.728 578.194 279.2 573.911 279.2L473.089 279.2C468.806 279.2 465.333 275.728 465.333 271.444L465.333 240.422C465.333 236.139 468.806 232.667 473.089 232.667Z" stroke="#4CAF50" stroke-width="1.55111" fill="#E8F5E9" transform="scale(1 1.0002)"/><text font-family="Arial,Arial_MSFontService,sans-serif" font-weight="700" font-size="14" transform="matrix(0.775556 0 0 0.775714 480.069 252)">Financial Health<tspan font-size="14" x="28" y="20.6262">Insights</tspan></text><path d="M449.822 333.489C449.822 346.339 439.405 356.756 426.556 356.756 413.706 356.756 403.289 346.339 403.289 333.489 403.289 320.639 413.706 310.222 426.556 310.222 439.405 310.222 449.822 320.639 449.822 333.489Z" stroke="#4CAF50" stroke-width="1.55111" fill="#C8E6C9" transform="scale(1 1.0002)"/><text font-family="Arial,Arial_MSFontService,sans-serif" font-weight="700" font-size="14" transform="matrix(0.775556 0 0 0.775714 423.453 337)">4</text><path d="M573.911 310.222C578.194 310.222 581.667 313.694 581.667 317.978L581.667 349C581.667 353.283 578.194 356.756 573.911 356.756L473.089 356.756C468.806 356.756 465.333 353.283 465.333 349L465.333 317.978C465.333 313.694 468.806 310.222 473.089 310.222Z" stroke="#4CAF50" stroke-width="1.55111" fill="#E8F5E9" transform="scale(1 1.0002)"/><text font-family="Arial,Arial_MSFontService,sans-serif" font-weight="700" font-size="14" transform="matrix(0.775556 0 0 0.775714 477.742 330)">Next<tspan font-size="14" x="32" y="0">-</tspan>Best<tspan font-size="14" x="69" y="0">-</tspan><tspan font-size="14" x="74" y="0">Action</tspan><tspan font-size="14" x="15" y="19.337">Suggestions</tspan></text><path d="M449.822 411.044C449.822 423.894 439.405 434.311 426.556 434.311 413.706 434.311 403.289 423.894 403.289 411.044 403.289 398.195 413.706 387.778 426.556 387.778 439.405 387.778 449.822 398.195 449.822 411.044Z" stroke="#4CAF50" stroke-width="1.55111" fill="#C8E6C9" transform="scale(1 1.0002)"/><text font-family="Arial,Arial_MSFontService,sans-serif" font-weight="700" font-size="14" transform="matrix(0.775556 0 0 0.775714 423.453 415)">5</text><path d="M573.911 387.778C578.194 387.778 581.667 391.25 581.667 395.533L581.667 426.556C581.667 430.839 578.194 434.311 573.911 434.311L473.089 434.311C468.806 434.311 465.333 430.839 465.333 426.556L465.333 395.533C465.333 391.25 468.806 387.778 473.089 387.778Z" stroke="#4CAF50" stroke-width="1.55111" fill="#E8F5E9" transform="scale(1 1.0002)"/><text font-family="Arial,Arial_MSFontService,sans-serif" font-weight="700" font-size="14" transform="matrix(0.775556 0 0 0.775714 497.131 407)">Customer<tspan font-size="14" x="7.00001" y="20.6262">Contact</tspan></text><path d="M426.556 124.089 426.556 155.111" stroke="#4CAF50" stroke-width="1.55111" fill="none" transform="scale(1 1.0002)"/><path d="M426.556 201.644 426.556 232.667" stroke="#4CAF50" stroke-width="1.55111" fill="none" transform="scale(1 1.0002)"/><path d="M426.556 279.2 426.556 310.222" stroke="#4CAF50" stroke-width="1.55111" fill="none" transform="scale(1 1.0002)"/><path d="M426.556 356.756 426.556 387.778" stroke="#4CAF50" stroke-width="1.55111" fill="none" transform="scale(1 1.0002)"/><text fill="#9C27B0" font-family="Arial,Arial_MSFontService,sans-serif" font-weight="700" font-size="12" transform="matrix(0.775556 0 0 0.775714 297.426 109)">Authentication Process</text><path d="M232.667 100.822 349 100.822 465.333 100.822" stroke="#9C27B0" stroke-width="0.775556" stroke-dasharray="3.10222 3.10222" fill="none" transform="scale(1 1.0002)"/><path d="M387.778 160.003C398.486 160.003 407.167 168.684 407.167 179.392L407.167 179.392C407.167 190.1 398.486 198.781 387.778 198.781L310.222 198.781C299.514 198.781 290.833 190.1 290.833 179.392L290.833 179.392C290.833 168.684 299.514 160.003 310.222 160.003Z" stroke="#9C27B0" stroke-width="0.775556" fill="#F3E5F5" transform="scale(1 1.0002)"/><text fill="#9C27B0" font-family="Arial,Arial_MSFontService,sans-serif" font-weight="400" font-size="12" transform="matrix(0.775556 0 0 0.775714 318.815 184)">Data Analysis</text><path d="M232.667 178.378 290.833 178.378 290.833 197.767 232.667 197.767" stroke="#9C27B0" stroke-width="0.775556" stroke-dasharray="3.10222 3.10222" fill="none" transform="matrix(1 0 0 1.0002 0.496611 -8.94081)"/><path d="M407.167 178.378 465.333 178.378 465.333 197.767 407.167 197.767" stroke="#9C27B0" stroke-width="0.775556" stroke-dasharray="3.10222 3.10222" fill="none" transform="matrix(1 0 0 1.0002 -0.993223 -10.431)"/><path d="M386.288 236.069C396.996 236.069 405.677 244.75 405.677 255.458L405.677 255.458C405.677 266.166 396.996 274.847 386.288 274.847L308.732 274.847C298.024 274.847 289.343 266.166 289.343 255.458L289.343 255.458C289.343 244.75 298.024 236.069 308.732 236.069Z" stroke="#9C27B0" stroke-width="0.775556" fill="#F3E5F5" transform="scale(1 1.0002)"/><text fill="#9C27B0" font-family="Arial,Arial_MSFontService,sans-serif" font-weight="400" font-size="12" transform="matrix(0.775556 0 0 0.775714 308.188 261)">Financial Scoring</text><path d="M232.667 255.933 290.833 255.933 290.833 275.322 232.667 275.322" stroke="#9C27B0" stroke-width="0.775556" stroke-dasharray="3.10222 3.10222" fill="none" transform="matrix(1 0 0 1.0002 0 -8.44412)"/><path d="M407.167 255.933 465.333 255.933 465.333 275.322 407.167 275.322" stroke="#9C27B0" stroke-width="0.775556" stroke-dasharray="3.10222 3.10222" fill="none" transform="matrix(1 0 0 1.0002 -1.48983 -11.9211)"/><path d="M388.274 315.114C398.982 315.114 407.663 323.795 407.663 334.503L407.663 334.503C407.663 345.212 398.982 353.892 388.274 353.892L310.719 353.892C300.01 353.892 291.33 345.212 291.33 334.503L291.33 334.503C291.33 323.795 300.01 315.114 310.719 315.114Z" stroke="#9C27B0" stroke-width="0.775556" fill="#F3E5F5" transform="scale(1 1.0002)"/><text fill="#9C27B0" font-family="Arial,Arial_MSFontService,sans-serif" font-weight="400" font-size="12" transform="matrix(0.775556 0 0 0.775714 299.766 338)">ML Recommendation</text><path d="M232.667 333.489 290.833 333.489 290.833 352.878 232.667 352.878" stroke="#9C27B0" stroke-width="0.775556" stroke-dasharray="3.10222 3.10222" fill="none" transform="matrix(1 0 0 1.0002 0.496611 -8.94081)"/><path d="M407.167 333.489 465.333 333.489 465.333 352.878 407.167 352.878" stroke="#9C27B0" stroke-width="0.775556" stroke-dasharray="3.10222 3.10222" fill="none" transform="matrix(1 0 0 1.0002 -0.496611 -9.93426)"/><path d="M388.274 392.174C398.982 392.174 407.663 400.854 407.663 411.562L407.663 411.562C407.663 422.271 398.982 430.951 388.274 430.951L310.719 430.951C300.01 430.951 291.33 422.271 291.33 411.562L291.33 411.562C291.33 400.854 300.01 392.174 310.719 392.174Z" stroke="#9C27B0" stroke-width="0.775556" fill="#F3E5F5" transform="scale(1 1.0002)"/><text fill="#9C27B0" font-family="Arial,Arial_MSFontService,sans-serif" font-weight="400" font-size="12" transform="matrix(0.775556 0 0 0.775714 306.127 417)">Life Event Detection</text><path d="M232.667 411.044 290.833 411.044 290.833 430.433 232.667 430.433" stroke="#9C27B0" stroke-width="0.775556" stroke-dasharray="3.10222 3.10222" fill="none" transform="matrix(1 0 0 1.0002 0.993223 -7.45069)"/><path d="M407.167 411.044 465.333 411.044 465.333 430.433 407.167 430.433" stroke="#9C27B0" stroke-width="0.775556" stroke-dasharray="3.10222 3.10222" fill="none" transform="matrix(1 0 0 1.0002 -0.496611 -10.9276)"/></g></svg>