<svg xmlns="http://www.w3.org/2000/svg" viewBox="0 0 1000 667">
  <!-- Background -->
  <rect width="1000" height="667" fill="#f5f7fa"/>
  
  <!-- Header -->
  <rect width="1000" height="60" fill="#0066cc"/>
  <text x="30" y="38" font-family="Arial" font-size="24" font-weight="bold" fill="white">RecomMind AI</text>
  <circle cx="970" cy="32" r="25" fill="white"/>
  <text x="925" y="38" font-family="Arial" font-size="14" fill="white">Sarah Johnson</text>
  <circle cx="970" cy="32" r="22" fill="white" stroke="#0066cc" stroke-width="2"/>
  <text x="965" y="38" font-family="Arial" font-size="22" fill="#0066cc" text-anchor="middle">SJ</text>
  
  <!-- Left Navigation -->
  <rect x="0" y="60" width="200" height="607" fill="white"/>
  <text x="30" y="95" font-family="Arial" font-size="14" font-weight="bold" fill="#666">MENU</text>
  
  <!-- Nav Items -->
  <rect x="0" y="150" width="200" height="45" fill="#e6f0ff" rx="3" ry="3"/>
  <text x="30" y="178" font-family="Arial" font-size="14" fill="#0066cc">Dashboard</text>
  
  <rect x="0" y="195" width="200" height="45" fill="#0066cc" rx="3" ry="3"/>
  <text x="30" y="223" font-family="Arial" font-size="14" fill="white">Accounts</text>
  
  <rect x="0" y="240" width="200" height="45" fill="#e6f0ff" rx="3" ry="3"/>
  <text x="30" y="268" font-family="Arial" font-size="14" fill="#0066cc">Financial Health</text>
  
  <rect x="0" y="285" width="200" height="45" fill="#e6f0ff" rx="3" ry="3"/>
  <text x="30" y="313" font-family="Arial" font-size="14" fill="#0066cc">Products</text>
  
  <rect x="0" y="330" width="200" height="45" fill="#e6f0ff" rx="3" ry="3"/>
  <text x="30" y="358" font-family="Arial" font-size="14" fill="#0066cc">Transactions</text>
  
  <rect x="0" y="375" width="200" height="45" fill="#e6f0ff" rx="3" ry="3"/>
  <text x="30" y="403" font-family="Arial" font-size="14" fill="#0066cc">Goals</text>
  
  <rect x="0" y="420" width="200" height="45" fill="#e6f0ff" rx="3" ry="3"/>
  <text x="30" y="448" font-family="Arial" font-size="14" fill="#0066cc">Settings</text>
  
  <!-- Main Content -->
  <rect x="225" y="90" width="750" height="70" rx="5" ry="5" fill="white" stroke="#e0e0e0" stroke-width="1"/>
  <text x="250" y="120" font-family="Arial" font-size="22" font-weight="bold" fill="#333">Your Accounts</text>
  <text x="250" y="145" font-family="Arial" font-size="14" fill="#666">View and manage all your financial accounts in one place.</text>
  
  <!-- Account Cards -->
  <!-- Checking Account -->
  <rect x="225" y="180" width="360" height="200" rx="5" ry="5" fill="white" stroke="#e0e0e0" stroke-width="1"/>
  <rect x="225" y="180" width="360" height="50" rx="5" ry="5" fill="#0066cc"/>
  <text x="250" y="212" font-family="Arial" font-size="16" font-weight="bold" fill="white">Checking Account</text>
  <text x="250" y="250" font-family="Arial" font-size="28" font-weight="bold" fill="#333">$1,942.04</text>
  <text x="250" y="275" font-family="Arial" font-size="14" fill="#666">Account #: ****4789</text>
  <text x="250" y="295" font-family="Arial" font-size="14" fill="#666">Last transaction: Apr 21, 2025</text>
  
  <rect x="250" y="315" width="310" height="10" rx="5" ry="5" fill="#f0f0f0"/>
  <rect x="250" y="315" width="130" height="10" rx="5" ry="5" fill="#4CAF50"/>
  
  <rect x="250" y="340" width="80" height="25" rx="12" ry="12" fill="#e6f0ff" stroke="#0066cc" stroke-width="1"/>
  <text x="290" y="357" font-family="Arial" font-size="12" fill="#0066cc" text-anchor="middle">Details</text>
  
  <!-- Savings Account -->
  <rect x="615" y="180" width="360" height="200" rx="5" ry="5" fill="white" stroke="#e0e0e0" stroke-width="1"/>
  <rect x="615" y="180" width="360" height="50" rx="5" ry="5" fill="#2196F3"/>
  <text x="640" y="212" font-family="Arial" font-size="16" font-weight="bold" fill="white">Savings Account</text>
  <text x="640" y="250" font-family="Arial" font-size="28" font-weight="bold" fill="#333">$6,140.57</text>
  <text x="640" y="275" font-family="Arial" font-size="14" fill="#666">Account #: ****3214</text>
  <text x="640" y="295" font-family="Arial" font-size="14" fill="#666">Goal progress: 61%</text>
  
  <rect x="640" y="315" width="310" height="10" rx="5" ry="5" fill="#f0f0f0"/>
  <rect x="640" y="315" width="189" height="10" rx="5" ry="5" fill="#2196F3"/>
  
  <rect x="640" y="340" width="80" height="25" rx="12" ry="12" fill="#e6f7ff" stroke="#2196F3" stroke-width="1"/>
  <text x="680" y="357" font-family="Arial" font-size="12" fill="#2196F3" text-anchor="middle">Details</text>
  
  <!-- Mortgage -->
  <rect x="225" y="400" width="360" height="200" rx="5" ry="5" fill="white" stroke="#e0e0e0" stroke-width="1"/>
  <rect x="225" y="400" width="360" height="50" rx="5" ry="5" fill="#FF9800"/>
  <text x="250" y="432" font-family="Arial" font-size="16" font-weight="bold" fill="white">Mortgage</text>
  <text x="250" y="470" font-family="Arial" font-size="28" font-weight="bold" fill="#333">$100,361.60</text>
  <text x="250" y="495" font-family="Arial" font-size="14" fill="#666">Account #: ****7112</text>
  <text x="250" y="515" font-family="Arial" font-size="14" fill="#666">Next payment: May 15, 2025</text>
  <text x="250" y="535" font-family="Arial" font-size="14" fill="#666">Payment amount: $875.30</text>
  
  <rect x="250" y="555" width="80" height="25" rx="12" ry="12" fill="#fff5e6" stroke="#FF9800" stroke-width="1"/>
  <text x="290" y="572" font-family="Arial" font-size="12" fill="#FF9800" text-anchor="middle">Details</text>
  
  <!-- Auto Loan -->
  <rect x="615" y="400" width="360" height="200" rx="5" ry="5" fill="white" stroke="#e0e0e0" stroke-width="1"/>
  <rect x="615" y="400" width="360" height="50" rx="5" ry="5" fill="#673AB7"/>
  <text x="640" y="432" font-family="Arial" font-size="16" font-weight="bold" fill="white">Auto Loan</text>
  <text x="640" y="470" font-family="Arial" font-size="28" font-weight="bold" fill="#333">$34,990.20</text>
  <text x="640" y="495" font-family="Arial" font-size="14" fill="#666">Account #: ****5498</text>
  <text x="640" y="515" font-family="Arial" font-size="14" fill="#666">Next payment: May 10, 2025</text>
  <text x="640" y="535" font-family="Arial" font-size="14" fill="#666">Payment amount: $428.50</text>
  
  <rect x="640" y="555" width="80" height="25" rx="12" ry="12" fill="#f3e5ff" stroke="#673AB7" stroke-width="1"/>
  <text x="680" y="572" font-family="Arial" font-size="12" fill="#673AB7" text-anchor="middle">Details</text>
  
  <!-- Add Account Button -->
  <rect x="870" y="90" width="105" height="40" rx="20" ry="20" fill="#0066cc"/>
  <text x="922" y="115" font-family="Arial" font-size="14" fill="white" text-anchor="middle">Add Account</text>
</svg>
