<svg xmlns="http://www.w3.org/2000/svg" viewBox="0 0 1200 800">
  <!-- Background -->
  <rect width="1200" height="800" fill="#f8f9fa" />
  
  <!-- Header -->
  <rect x="0" y="0" width="1200" height="60" fill="#1976d2" />
  <text x="25" y="38" font-family="Arial" font-size="24" fill="white" font-weight="bold">RecomMind AI</text>
  <text x="200" y="38" font-family="Arial" font-size="18" fill="white">Relationship Manager Dashboard</text>
  
  <!-- User profile info -->
  <circle cx="1140" cy="30" r="20" fill="#bbdefb" stroke="white" stroke-width="2" />
  <text x="1140" y="35" font-family="Arial" font-size="14" text-anchor="middle" fill="#1976d2" font-weight="bold">JD</text>
  <text x="1090" y="38" font-family="Arial" font-size="14" fill="white" text-anchor="end">John Doe</text>
  
  <!-- Sidebar navigation -->
  <rect x="0" y="60" width="200" height="740" fill="#e3f2fd" />
  
  <!-- Nav items -->
  <rect x="0" y="130" width="200" height="50" fill="#1976d2" />
  <text x="20" y="160" font-family="Arial" font-size="14" fill="white">Customer Overview</text>
  
  <text x="20" y="210" font-family="Arial" font-size="14" fill="#333">Performance Metrics</text>
  <text x="20" y="260" font-family="Arial" font-size="14" fill="#333">Team Management</text>
  <text x="20" y="310" font-family="Arial" font-size="14" fill="#333">Product Catalog</text>
  <text x="20" y="360" font-family="Arial" font-size="14" fill="#333">Analytics</text>
  <text x="20" y="410" font-family="Arial" font-size="14" fill="#333">Settings</text>
  
  <!-- Main content area -->
  <rect x="200" y="60" width="1000" height="60" fill="#f1f3f4" />
  <text x="220" y="100" font-family="Arial" font-size="20" fill="#333" font-weight="bold">Customer Overview</text>
  
  <!-- Search bar -->
  <rect x="650" y="75" width="300" height="30" rx="15" fill="white" stroke="#ccc" stroke-width="1" />
  <text x="670" y="95" font-family="Arial" font-size="14" fill="#777">Search customers...</text>
  
  <!-- Filter buttons -->
  <rect x="970" y="75" width="100" height="30" rx="5" fill="white" stroke="#ccc" stroke-width="1" />
  <text x="1020" y="95" font-family="Arial" font-size="14" fill="#333" text-anchor="middle">Filter</text>
  
  <rect x="1080" y="75" width="100" height="30" rx="5" fill="#1976d2" />
  <text x="1130" y="95" font-family="Arial" font-size="14" fill="white" text-anchor="middle">+ New</text>
  
  <!-- Customer list section -->
  <text x="220" y="150" font-family="Arial" font-size="16" fill="#444" font-weight="bold">Priority Customers</text>
  
  <!-- Customer card 1 - selected -->
  <rect x="220" y="170" width="300" height="160" rx="5" fill="white" stroke="#1976d2" stroke-width="2" />
  <rect x="220" y="170" width="5" height="160" rx="2" fill="#ff9800" />
  
  <text x="240" y="195" font-family="Arial" font-size="16" fill="#333" font-weight="bold">Sarah Johnson</text>
  <circle cx="490" cy="190" r="15" fill="#4caf50" />
  <text x="490" y="195" font-family="Arial" font-size="14" fill="white" text-anchor="middle">↑</text>
  
  <text x="240" y="215" font-family="Arial" font-size="12" fill="#666">Customer ID: #38291</text>
  <text x="240" y="235" font-family="Arial" font-size="12" fill="#666">Last Contact: Mar 15, 2025</text>
  
  <rect x="240" y="245" width="260" height="8" rx="4" fill="#e0e0e0" />
  <rect x="240" y="245" width="208" height="8" rx="4" fill="#4caf50" />
  
  <text x="240" y="265" font-family="Arial" font-size="12" fill="#666">Financial Health Score: 80/100</text>
  
  <rect x="240" y="280" width="120" height="28" rx="14" fill="#e3f2fd" />
  <text x="300" y="298" font-family="Arial" font-size="12" fill="#1976d2" text-anchor="middle">Life Event</text>
  
  <rect x="370" y="280" width="120" height="28" rx="14" fill="#ffebee" />
  <text x="430" y="298" font-family="Arial" font-size="12" fill="#f44336" text-anchor="middle">3 Actions</text>
  
  <!-- Customer card 2 -->
  <rect x="220" y="340" width="300" height="160" rx="5" fill="white" stroke="#e0e0e0" stroke-width="1" />
  <rect x="220" y="340" width="5" height="160" rx="2" fill="#2196f3" />
  
  <text x="240" y="365" font-family="Arial" font-size="16" fill="#333" font-weight="bold">Michael Chen</text>
  <circle cx="490" cy="360" r="15" fill="#f44336" />
  <text x="490" y="365" font-family="Arial" font-size="14" fill="white" text-anchor="middle">↓</text>
  
  <text x="240" y="385" font-family="Arial" font-size="12" fill="#666">Customer ID: #42587</text>
  <text x="240" y="405" font-family="Arial" font-size="12" fill="#666">Last Contact: Mar 10, 2025</text>
  
  <rect x="240" y="415" width="260" height="8" rx="4" fill="#e0e0e0" />
  <rect x="240" y="415" width="156" height="8" rx="4" fill="#ff9800" />
  
  <text x="240" y="435" font-family="Arial" font-size="12" fill="#666">Financial Health Score: 60/100</text>
  
  <rect x="240" y="450" width="120" height="28" rx="14" fill="#e3f2fd" />
  <text x="300" y="468" font-family="Arial" font-size="12" fill="#1976d2" text-anchor="middle">Mortgage</text>
  
  <rect x="370" y="450" width="120" height="28" rx="14" fill="#ffebee" />
  <text x="430" y="468" font-family="Arial" font-size="12" fill="#f44336" text-anchor="middle">5 Actions</text>
  
  <!-- Customer card 3 -->
  <rect x="220" y="510" width="300" height="160" rx="5" fill="white" stroke="#e0e0e0" stroke-width="1" />
  <rect x="220" y="510" width="5" height="160" rx="2" fill="#4caf50" />
  
  <text x="240" y="535" font-family="Arial" font-size="16" fill="#333" font-weight="bold">Emily Rodriguez</text>
  <circle cx="490" cy="530" r="15" fill="#4caf50" />
  <text x="490" y="535" font-family="Arial" font-size="14" fill="white" text-anchor="middle">↑</text>
  
  <text x="240" y="555" font-family="Arial" font-size="12" fill="#666">Customer ID: #29145</text>
  <text x="240" y="575" font-family="Arial" font-size="12" fill="#666">Last Contact: Mar 18, 2025</text>
  
  <rect x="240" y="585" width="260" height="8" rx="4" fill="#e0e0e0" />
  <rect x="240" y="585" width="234" height="8" rx="4" fill="#4caf50" />
  
  <text x="240" y="605" font-family="Arial" font-size="12" fill="#666">Financial Health Score: 90/100</text>
  
  <rect x="240" y="620" width="120" height="28" rx="14" fill="#e3f2fd" />
  <text x="300" y="638" font-family="Arial" font-size="12" fill="#1976d2" text-anchor="middle">Investments</text>
  
  <rect x="370" y="620" width="120" height="28" rx="14" fill="#ffebee" />
  <text x="430" y="638" font-family="Arial" font-size="12" fill="#f44336" text-anchor="middle">2 Actions</text>
  
  <!-- Customer Detail Panel (for selected customer) -->
  <rect x="540" y="170" width="640" height="610" rx="5" fill="white" stroke="#e0e0e0" stroke-width="1" />
  
  <!-- Customer header -->
  <rect x="540" y="170" width="640" height="80" rx="5" fill="#f5f5f5" />
  <text x="570" y="210" font-family="Arial" font-size="20" fill="#333" font-weight="bold">Sarah Johnson</text>
  <text x="570" y="235" font-family="Arial" font-size="14" fill="#666">Premium Banking Customer since 2021</text>
  
  <!-- Action buttons -->
  <rect x="990" y="195" width="80" height="32" rx="16" fill="#1976d2" />
  <text x="1030" y="215" font-family="Arial" font-size="14" fill="white" text-anchor="middle">Contact</text>
  
  <rect x="1080" y="195" width="80" height="32" rx="16" fill="white" stroke="#1976d2" stroke-width="1" />
  <text x="1120" y="215" font-family="Arial" font-size="14" fill="#1976d2" text-anchor="middle">Notes</text>
  
  <!-- Tabs -->
  <rect x="540" y="250" width="640" height="40" fill="#fff" />
  <rect x="540" y="289" width="160" height="1" fill="#1976d2" stroke="#1976d2" stroke-width="2" />
  
  <text x="620" y="275" font-family="Arial" font-size="14" fill="#1976d2" text-anchor="middle" font-weight="bold">Overview</text>
  <text x="780" y="275" font-family="Arial" font-size="14" fill="#666" text-anchor="middle">Financial Health</text>
  <text x="940" y="275" font-family="Arial" font-size="14" fill="#666" text-anchor="middle">Products</text>
  <text x="1100" y="275" font-family="Arial" font-size="14" fill="#666" text-anchor="middle">History</text>
  
  <!-- Financial summary section -->
  <text x="560" y="320" font-family="Arial" font-size="16" fill="#333" font-weight="bold">Financial Summary</text>
  
  <!-- Summary cards -->
  <rect x="560" y="340" width="180" height="90" rx="5" fill="#e3f2fd" />
  <text x="580" y="365" font-family="Arial" font-size="14" fill="#666">Total Balance</text>
  <text x="580" y="395" font-family="Arial" font-size="24" fill="#333" font-weight="bold">$128,450</text>
  <text x="580" y="415" font-family="Arial" font-size="12" fill="#4caf50">↑ 3.2% from last month</text>
  
  <rect x="760" y="340" width="180" height="90" rx="5" fill="#e8f5e9" />
  <text x="780" y="365" font-family="Arial" font-size="14" fill="#666">Investments</text>
  <text x="780" y="395" font-family="Arial" font-size="24" fill="#333" font-weight="bold">$85,200</text>
  <text x="780" y="415" font-family="Arial" font-size="12" fill="#4caf50">↑ 2.8% from last month</text>
  
  <rect x="960" y="340" width="200" height="90" rx="5" fill="#fff3e0" />
  <text x="980" y="365" font-family="Arial" font-size="14" fill="#666">Loans</text>
  <text x="980" y="395" font-family="Arial" font-size="24" fill="#333" font-weight="bold">$320,000</text>
  <text x="980" y="415" font-family="Arial" font-size="12" fill="#f44336">↑ 0% from last month</text>
  
  <!-- Life Events Detection -->
  <text x="560" y="460" font-family="Arial" font-size="16" fill="#333" font-weight="bold">Detected Life Events</text>
  
  <rect x="560" y="480" width="620" height="70" rx="5" fill="#ede7f6" stroke="#673ab7" stroke-width="1" />
  <circle cx="590" cy="515" r="20" fill="#673ab7" />
  <text x="590" y="520" font-family="Arial" font-size="16" fill="white" text-anchor="middle">🏠</text>
  
  <text x="625" y="505" font-family="Arial" font-size="16" fill="#333" font-weight="bold">Potential Home Purchase</text>
  <text x="625" y="525" font-family="Arial" font-size="14" fill="#666">Multiple searches for real estate sites and increased savings pattern detected</text>
  
  <rect x="970" y="500" width="160" height="32" rx="16" fill="#673ab7" />
  <text x="1050" y="520" font-family="Arial" font-size="14" fill="white" text-anchor="middle">View Details</text>
  
  <!-- Next Best Actions -->
  <text x="560" y="580" font-family="Arial" font-size="16" fill="#333" font-weight="bold">Next Best Actions</text>
  
  <!-- Action 1 -->
  <rect x="560" y="600" width="620" height="50" rx="5" fill="white" stroke="#e0e0e0" stroke-width="1" />
  <rect x="560" y="600" width="5" height="50" rx="2" fill="#f44336" />
  <text x="580" y="630" font-family="Arial" font-size="14" fill="#333" font-weight="bold">Offer Home Mortgage Pre-Approval</text>
  <rect x="1030" y="610" width="120" height="30" rx="15" fill="#f44336" />
  <text x="1090" y="630" font-family="Arial" font-size="14" fill="white" text-anchor="middle">High Priority</text>
  
  <!-- Action 2 -->
  <rect x="560" y="660" width="620" height="50" rx="5" fill="white" stroke="#e0e0e0" stroke-width="1" />
  <rect x="560" y="660" width="5" height="50" rx="2" fill="#ff9800" />
  <text x="580" y="690" font-family="Arial" font-size="14" fill="#333" font-weight="bold">Schedule Financial Planning Consultation</text>
  <rect x="1030" y="670" width="120" height="30" rx="15" fill="#ff9800" />
  <text x="1090" y="690" font-family="Arial" font-size="14" fill="white" text-anchor="middle">Medium Priority</text>
  
  <!-- Action 3 -->
  <rect x="560" y="720" width="620" height="50" rx="5" fill="white" stroke="#e0e0e0" stroke-width="1" />
  <rect x="560" y="720" width="5" height="50" rx="2" fill="#2196f3" />
  <text x="580" y="750" font-family="Arial" font-size="14" fill="#333" font-weight="bold">Recommend Home Insurance Options</text>
  <rect x="1030" y="730" width="120" height="30" rx="15" fill="#2196f3" />
  <text x="1090" y="750" font-family="Arial" font-size="14" fill="white" text-anchor="middle">Regular Priority</text>
</svg>
